<?xml version="1.0" standalone="no"?>
<!DOCTYPE svg PUBLIC "-//W3C//DTD SVG 20010904//EN"
 "http://www.w3.org/TR/2001/REC-SVG-20010904/DTD/svg10.dtd">
<svg version="1.0" xmlns="http://www.w3.org/2000/svg"
 width="512.000000pt" height="512.000000pt" viewBox="0 0 512.000000 512.000000"
 preserveAspectRatio="xMidYMid meet">
<metadata>
Created by potrace 1.14, written by Peter Selinger 2001-2017
</metadata>
<g transform="translate(0.000000,512.000000) scale(0.100000,-0.100000)"
fill="#000000" stroke="none">
<path d="M2248 4634 c-2 -1 -30 -4 -63 -8 -33 -3 -71 -7 -85 -10 -14 -3 -43
-7 -65 -11 -201 -29 -525 -159 -733 -295 -196 -127 -401 -316 -527 -485 -16
-22 -33 -42 -36 -45 -15 -12 -122 -185 -166 -271 -95 -181 -189 -468 -208
-634 -4 -33 -9 -69 -12 -80 -10 -39 -11 -391 -2 -465 51 -423 231 -827 508
-1144 348 -398 852 -656 1368 -702 69 -6 72 -6 88 20 20 30 14 71 -13 84 -9 5
-46 12 -82 16 -36 3 -90 10 -120 16 -30 5 -69 12 -86 15 -115 19 -343 102
-489 178 -88 47 -241 140 -255 156 -3 3 -32 26 -65 51 -79 58 -236 215 -314
314 -58 74 -161 220 -161 229 0 2 -17 36 -39 75 -76 138 -144 321 -186 497
-39 165 -54 426 -36 617 34 357 169 703 386 993 63 85 247 275 330 342 198
160 466 297 711 363 114 32 170 43 272 56 l42 5 0 -1322 0 -1322 -149 234
c-83 129 -181 284 -219 344 -144 229 -665 1040 -673 1049 -4 5 -22 9 -39 9
-62 0 -59 49 -56 -945 2 -998 -2 -941 61 -941 62 0 58 -45 57 825 -1 718 0
791 14 773 9 -11 39 -56 67 -100 84 -129 361 -563 377 -590 42 -70 555 -868
572 -890 23 -30 67 -33 91 -7 16 17 17 137 17 1515 l0 1497 -40 -2 c-22 -1
-41 -2 -42 -4z"/>
<path d="M2561 4621 c-28 -28 -27 -67 2 -85 16 -11 53 -15 142 -15 119 -1 149
-3 275 -21 201 -30 369 -81 549 -166 301 -143 497 -302 735 -594 87 -108 225
-362 280 -515 35 -99 74 -241 81 -300 4 -27 9 -53 11 -56 26 -44 25 -516 -1
-639 -3 -14 -7 -36 -9 -50 -29 -194 -162 -516 -297 -715 -74 -110 -86 -125
-166 -217 -280 -321 -737 -573 -1148 -633 -16 -3 -55 -8 -85 -13 -30 -4 -103
-9 -162 -11 l-108 -3 0 1343 c0 738 2 1340 4 1338 3 -4 266 -473 321 -574 12
-22 31 -57 43 -77 12 -21 38 -67 58 -104 145 -265 160 -283 204 -261 23 12 40
39 127 197 20 36 41 74 48 85 7 11 26 45 42 75 17 30 106 192 199 360 l169
304 5 -798 c5 -775 6 -798 24 -812 29 -21 63 -17 80 9 13 19 15 146 15 940 l0
917 -21 20 c-12 11 -24 20 -27 20 -14 0 -61 -50 -98 -105 -33 -49 -398 -697
-515 -915 -17 -30 -39 -70 -50 -88 l-20 -32 -107 192 c-59 106 -110 200 -114
208 -4 8 -15 29 -25 45 -10 17 -34 57 -52 90 -18 33 -63 114 -100 180 -37 66
-76 136 -87 155 -11 19 -46 82 -78 140 -32 58 -66 111 -74 117 -20 16 -62 8
-78 -14 -10 -13 -13 -334 -13 -1525 l0 -1508 21 -21 c21 -21 28 -21 188 -16
91 3 193 10 226 16 33 5 78 12 100 16 306 49 684 225 935 433 384 320 655 774
734 1232 3 19 8 46 11 60 24 121 27 474 6 610 -76 489 -288 898 -638 1230 -49
47 -104 96 -123 110 -18 14 -45 35 -59 46 -106 87 -326 208 -511 279 -84 33
-281 89 -350 99 -19 3 -62 10 -95 16 -33 6 -137 13 -231 17 -166 6 -172 5
-193 -16z"/>
</g>
</svg>
