<?xml version="1.0" encoding="UTF-8"?>
<svg width="19px" height="20px" viewBox="0 0 19 20" version="1.1" xmlns="http://www.w3.org/2000/svg" xmlns:xlink="http://www.w3.org/1999/xlink">
    <!-- Generator: Sketch 57.1 (83088) - https://sketch.com -->
    <title>t</title>
    <desc>Created with Sketch.</desc>
    <g id="Page-1" stroke="none" stroke-width="1" fill="none" fill-rule="evenodd">
        <g id="Artboard" transform="translate(-1593.000000, -1058.000000)" fill="#666666" fill-rule="nonzero">
            <path d="M1604.36716,1067.75003 L1611.63277,1075.01563 C1611.71089,1075.09376 1611.74996,1075.20118 1611.74996,1075.3379 C1611.74996,1075.47462 1611.71089,1075.58204 1611.63277,1075.66016 L1610.28512,1077.00782 C1610.20699,1077.08594 1610.09957,1077.125 1609.96285,1077.125 C1609.82613,1077.125 1609.71871,1077.08594 1609.64059,1077.00782 L1602.37498,1069.74221 L1595.10937,1077.00782 C1595.03125,1077.08594 1594.92382,1077.125 1594.78711,1077.125 C1594.65039,1077.125 1594.54296,1077.08594 1594.46484,1077.00782 L1593.11719,1075.66016 C1593.03906,1075.58204 1593,1075.47462 1593,1075.3379 C1593,1075.20118 1593.03906,1075.09376 1593.11719,1075.01563 L1600.38279,1067.75003 L1593.11719,1060.48442 C1593.03906,1060.40629 1593,1060.29887 1593,1060.16215 C1593,1060.02544 1593.03906,1059.91801 1593.11719,1059.83989 L1594.46484,1058.49224 C1594.54296,1058.41411 1594.65039,1058.37505 1594.78711,1058.37505 C1594.92382,1058.37505 1595.03125,1058.41411 1595.10937,1058.49224 L1602.37498,1065.75784 L1609.64059,1058.49224 C1609.71871,1058.41411 1609.82613,1058.37505 1609.96285,1058.37505 C1610.09957,1058.37505 1610.20699,1058.41411 1610.28512,1058.49224 L1611.63277,1059.83989 C1611.71089,1059.91801 1611.74996,1060.02544 1611.74996,1060.16215 C1611.74996,1060.29887 1611.71089,1060.40629 1611.63277,1060.48442 L1604.36716,1067.75003 Z" id="t"></path>
        </g>
    </g>
</svg>