<svg width="74" height="71" viewBox="0 0 74 71" fill="none" xmlns="http://www.w3.org/2000/svg">
<path d="M37 68.5625C48.6211 68.5625 59.4219 62.4102 65.3008 52.1562C71.1797 42.0391 71.1797 29.5977 65.3008 19.3438C59.4219 9.22656 48.6211 2.9375 37 2.9375C25.2422 2.9375 14.4414 9.22656 8.5625 19.3438C2.68359 29.5977 2.68359 42.0391 8.5625 52.1562C14.4414 62.4102 25.2422 68.5625 37 68.5625ZM37 0.75C49.4414 0.75 60.9258 7.44922 67.2148 18.25C73.5039 29.1875 73.5039 42.4492 67.2148 53.25C60.9258 64.1875 49.4414 70.75 37 70.75C24.4219 70.75 12.9375 64.1875 6.64844 53.25C0.359375 42.4492 0.359375 29.1875 6.64844 18.25C12.9375 7.44922 24.4219 0.75 37 0.75ZM39.1875 11.6875C39.1875 12.918 38.0938 13.875 37 13.875C35.7695 13.875 34.8125 12.918 34.8125 11.6875C34.8125 10.5938 35.7695 9.5 37 9.5C38.0938 9.5 39.1875 10.5938 39.1875 11.6875ZM30.4375 48.875C30.4375 51.3359 31.668 53.3867 33.7188 54.6172C35.6328 55.8477 38.2305 55.8477 40.2812 54.6172C42.1953 53.3867 43.5625 51.3359 43.5625 48.875C43.5625 46.5508 42.1953 44.5 40.2812 43.2695C38.2305 42.0391 35.6328 42.0391 33.7188 43.2695C31.668 44.5 30.4375 46.5508 30.4375 48.875ZM28.25 48.875C28.25 44.0898 32.0781 40.125 37 40.125C39.4609 40.125 41.7852 41.3555 43.4258 42.9961L58.1914 32.7422L59.1484 32.0586L60.3789 33.8359L59.4219 34.5195L44.6562 44.9102C45.3398 46.0039 45.75 47.5078 45.75 48.875C45.75 53.7969 41.7852 57.625 37 57.625C32.0781 57.625 28.25 53.7969 28.25 48.875ZM54.5 18.25C54.5 19.4805 53.4062 20.4375 52.3125 20.4375C51.082 20.4375 50.125 19.4805 50.125 18.25C50.125 17.1562 51.082 16.0625 52.3125 16.0625C53.4062 16.0625 54.5 17.1562 54.5 18.25ZM15.125 31.375C16.2188 31.375 17.3125 32.4688 17.3125 33.5625C17.3125 34.793 16.2188 35.75 15.125 35.75C13.8945 35.75 12.9375 34.793 12.9375 33.5625C12.9375 32.4688 13.8945 31.375 15.125 31.375ZM23.875 18.25C23.875 19.4805 22.7812 20.4375 21.6875 20.4375C20.457 20.4375 19.5 19.4805 19.5 18.25C19.5 17.1562 20.457 16.0625 21.6875 16.0625C22.7812 16.0625 23.875 17.1562 23.875 18.25Z" fill="#F18574"/>
</svg>
