<svg viewBox="0 0 189 60" fill="none" xmlns="http://www.w3.org/2000/svg">
<path d="M27.594 59.8986C27.594 59.8986 27.5518 59.8986 27.5265 59.8986C12.0887 58.7345 0 45.6756 0 30.1787C0 14.6818 12.0887 1.6229 27.5265 0.4503L28.4376 0.382812V42.9086C28.4376 43.3726 28.058 43.7522 27.594 43.7522C27.13 43.7522 26.7504 43.3726 26.7504 42.9086V2.22186C12.6202 3.74877 1.68719 15.8628 1.68719 30.1787C1.68719 44.4945 13.0926 57.1148 27.6531 58.2199C28.117 58.2536 28.4629 58.6586 28.4292 59.1225C28.3954 59.5696 28.0242 59.8986 27.5856 59.8986H27.594Z" fill="#191817"/>
<path d="M27.5512 43.7524C27.2728 43.7524 27.0029 43.6175 26.8426 43.3644L12.1556 20.3426L12.1893 42.8076C12.1893 43.2716 11.8097 43.6512 11.3457 43.6512C10.8818 43.6512 10.5021 43.2716 10.5021 42.8076L10.46 17.4406C10.46 17.0694 10.7046 16.732 11.0673 16.6308C11.4301 16.5295 11.8181 16.6729 12.0122 16.9851L28.2598 42.4533C28.5129 42.8498 28.3948 43.3644 27.9983 43.6175C27.8549 43.7102 27.7031 43.7524 27.5428 43.7524H27.5512Z" fill="#191817"/>
<path d="M33.7016 59.9831C33.2376 59.9831 32.7821 59.9747 32.3181 59.9494C31.871 59.9325 31.5167 59.5613 31.5167 59.1058V16.5547C31.5167 16.1667 31.7782 15.8377 32.1494 15.7364C32.5206 15.6352 32.9086 15.8039 33.0942 16.1414L41.9351 32.0094C42.8209 30.4066 44.3984 27.5721 45.9759 24.7376C47.1738 22.5864 48.3633 20.4353 49.2659 18.824C50.4807 16.6531 51.3018 15.624 51.7292 15.7364C52.1004 15.8292 52.3619 16.1667 52.3619 16.5547V42.2845C52.3619 42.7484 51.9823 43.1281 51.5183 43.1281C51.0544 43.1281 50.6747 42.7484 50.6747 42.2845V19.752C48.6923 23.2951 45.2251 29.5461 42.6775 34.1522C42.5256 34.4221 42.2472 34.5908 41.9435 34.5908C41.6398 34.5908 41.353 34.4221 41.2096 34.1606L33.2039 19.8026V58.2959C33.3726 58.2959 33.5329 58.2959 33.7016 58.2959C49.2069 58.2959 61.8271 45.6757 61.8271 30.1704C61.8271 14.6651 49.2069 2.05327 33.7016 2.05327C33.2629 2.05327 32.8327 2.06171 32.394 2.08702C31.9301 2.08702 31.5336 1.74958 31.5167 1.2856C31.4998 0.821619 31.8541 0.425128 32.3181 0.408256C32.7736 0.391384 33.2376 0.374512 33.7016 0.374512C50.1348 0.374512 63.5143 13.7455 63.5143 30.1873C63.5143 46.629 50.1433 60 33.7016 60V59.9831Z" fill="#191817"/>
<path d="M76.3539 36.0669C76.3707 35.9488 76.4551 35.856 76.6154 35.856H76.8431C76.9612 35.856 77.0456 35.915 77.0878 35.9994L80.2344 42.7482H80.2766L83.4232 35.9994C83.4654 35.915 83.5413 35.856 83.6678 35.856H83.8956C84.0559 35.856 84.1402 35.9572 84.1571 36.0669L85.8443 45.6754C85.8865 45.8779 85.7768 46.0044 85.5828 46.0044H84.2837C84.1571 46.0044 84.039 45.8863 84.0137 45.7935L83.1701 40.3692H83.1279L80.6224 45.9876C80.5887 46.0719 80.5043 46.1479 80.3778 46.1479H80.1163C79.9897 46.1479 79.9138 46.0804 79.8716 45.9876L77.3409 40.3692H77.2987L76.472 45.7935C76.4551 45.8948 76.3454 46.0044 76.2104 46.0044H74.9197C74.7341 46.0044 74.616 45.8779 74.6498 45.6754L76.3539 36.0669Z" fill="#191817"/>
<path d="M89.3457 45.6339L93.7914 36.0084C93.8336 35.9241 93.9011 35.8481 94.0361 35.8481H94.1795C94.3229 35.8481 94.3819 35.9156 94.4241 36.0084L98.8277 45.6339C98.912 45.8195 98.8024 46.0051 98.583 46.0051H97.343C97.1321 46.0051 97.0308 45.9207 96.9296 45.7182L96.2294 44.1745H91.9524L91.2522 45.7182C91.1931 45.8616 91.0666 46.0051 90.8388 46.0051H89.5988C89.3879 46.0051 89.2697 45.8195 89.3541 45.6339H89.3457ZM95.5208 42.5885L94.0867 39.4419H94.0445L92.6441 42.5885H95.5208Z" fill="#191817"/>
<path d="M102.977 36.2695C102.977 36.1261 103.095 35.9995 103.247 35.9995H107.339C109.051 35.9995 110.46 37.3746 110.46 39.0702C110.46 40.3862 109.591 41.4576 108.343 41.9553L110.3 45.5912C110.401 45.7768 110.3 46.0046 110.055 46.0046H108.553C108.427 46.0046 108.351 45.9371 108.326 45.878L106.428 42.0903H104.842V45.7346C104.842 45.878 104.715 46.0046 104.572 46.0046H103.256C103.095 46.0046 102.986 45.878 102.986 45.7346V36.2695H102.977ZM107.178 40.5634C107.938 40.5634 108.596 39.9054 108.596 39.1039C108.596 38.3447 107.938 37.7204 107.178 37.7204H104.85V40.5634H107.178Z" fill="#191817"/>
<path d="M115.345 36.3454C115.345 36.1598 115.488 35.9995 115.691 35.9995H116.948C117.133 35.9995 117.293 36.1598 117.293 36.3454V40.2091L120.896 36.1514C120.955 36.0839 121.039 36.0079 121.166 36.0079H122.6C122.87 36.0079 123.013 36.3116 122.827 36.5225L119.099 40.7237L123.106 45.5153C123.249 45.7009 123.131 46.013 122.844 46.013H121.284C121.14 46.013 121.056 45.954 121.022 45.9118L117.293 41.3057V45.6671C117.293 45.8527 117.133 46.013 116.948 46.013H115.691C115.488 46.013 115.345 45.8527 115.345 45.6671V36.3454Z" fill="#191817"/>
<path d="M127.526 36.2695C127.526 36.1261 127.644 35.9995 127.796 35.9995H133.617C133.777 35.9995 133.887 36.1261 133.887 36.2695V37.4421C133.887 37.5855 133.769 37.712 133.617 37.712H129.382V40.0572H132.917C133.06 40.0572 133.187 40.1838 133.187 40.3272V41.5166C133.187 41.6769 133.06 41.7866 132.917 41.7866H129.382V44.2921H133.617C133.777 44.2921 133.887 44.4186 133.887 44.562V45.7346C133.887 45.878 133.769 46.0046 133.617 46.0046H127.796C127.636 46.0046 127.526 45.878 127.526 45.7346V36.2695Z" fill="#191817"/>
<path d="M140.13 37.712H137.936C137.776 37.712 137.666 37.5855 137.666 37.4421V36.2695C137.666 36.1261 137.784 35.9995 137.936 35.9995H144.187C144.348 35.9995 144.457 36.1261 144.457 36.2695V37.4421C144.457 37.5855 144.348 37.712 144.187 37.712H142.002V45.7346C142.002 45.878 141.876 46.0046 141.732 46.0046H140.4C140.256 46.0046 140.13 45.878 140.13 45.7346V37.712Z" fill="#191817"/>
<path d="M158.646 36.2695C158.646 36.1261 158.764 35.9995 158.916 35.9995H164.737C164.897 35.9995 165.007 36.1261 165.007 36.2695V37.4421C165.007 37.5855 164.889 37.712 164.737 37.712H160.502V40.0572H164.037C164.18 40.0572 164.307 40.1838 164.307 40.3272V41.5166C164.307 41.6769 164.18 41.7866 164.037 41.7866H160.502V44.2921H164.737C164.897 44.2921 165.007 44.4186 165.007 44.562V45.7346C165.007 45.878 164.889 46.0046 164.737 46.0046H158.916C158.756 46.0046 158.646 45.878 158.646 45.7346V36.2695Z" fill="#191817"/>
<path d="M169.9 36.2695C169.9 36.1261 170.018 35.9995 170.17 35.9995H174.261C175.974 35.9995 177.383 37.3746 177.383 39.0702C177.383 40.3862 176.514 41.4576 175.265 41.9553L177.222 45.5912C177.324 45.7768 177.222 46.0046 176.978 46.0046H175.476C175.35 46.0046 175.274 45.9371 175.248 45.878L173.35 42.0903H171.764V45.7346C171.764 45.878 171.638 46.0046 171.494 46.0046H170.178C170.018 46.0046 169.908 45.878 169.908 45.7346V36.2695H169.9ZM174.109 40.5634C174.869 40.5634 175.527 39.9054 175.527 39.1039C175.527 38.3447 174.869 37.7204 174.109 37.7204H171.781V40.5634H174.109Z" fill="#191817"/>
<path d="M181.694 44.6041L182.209 43.7183C182.327 43.5158 182.571 43.5158 182.698 43.6171C182.765 43.6592 183.93 44.5028 184.858 44.5028C185.6 44.5028 186.157 44.0135 186.157 43.3977C186.157 42.6722 185.541 42.1661 184.343 41.6852C183.002 41.1453 181.652 40.2848 181.652 38.5977C181.652 37.3238 182.597 35.856 184.866 35.856C186.325 35.856 187.439 36.5983 187.726 36.8177C187.869 36.902 187.911 37.1467 187.81 37.2901L187.27 38.1084C187.152 38.2771 186.941 38.3952 186.773 38.2771C186.654 38.2096 185.575 37.4925 184.782 37.4925C183.989 37.4925 183.525 38.0324 183.525 38.4964C183.525 39.1713 184.056 39.6268 185.212 40.0993C186.595 40.656 188.198 41.4912 188.198 43.3302C188.198 44.8065 186.924 46.1647 184.908 46.1647C183.103 46.1647 182.048 45.3211 181.762 45.0512C181.635 44.9246 181.559 44.8487 181.686 44.6209L181.694 44.6041Z" fill="#191817"/>
<path d="M75.3843 14.6142C75.3843 14.378 75.5952 14.1924 75.8314 14.1924H76.4135L86.0979 24.4758H86.1232V14.8673C86.1232 14.6311 86.3088 14.4286 86.5704 14.4286H88.7131C88.9493 14.4286 89.1602 14.6395 89.1602 14.8673V30.5244C89.1602 30.7606 88.9493 30.9462 88.7131 30.9462H88.1563L78.4297 20.2663H78.4044V30.2714C78.4044 30.5076 78.2188 30.71 77.9572 30.71H75.8398C75.6036 30.71 75.3927 30.4991 75.3927 30.2714V14.6142H75.3843Z" fill="#191817"/>
<path d="M105.196 14.2012C109.853 14.2012 113.573 17.9467 113.573 22.6034C113.573 27.2601 109.853 30.955 105.196 30.955C100.54 30.955 96.8447 27.2516 96.8447 22.6034C96.8447 17.9552 100.548 14.2012 105.196 14.2012ZM105.196 27.9265C108.132 27.9265 110.545 25.5307 110.545 22.595C110.545 19.6593 108.124 17.2213 105.196 17.2213C102.269 17.2213 99.8648 19.6677 99.8648 22.595C99.8648 25.5223 102.261 27.9265 105.196 27.9265Z" fill="#191817"/>
<path d="M121.25 14.8762C121.25 14.64 121.436 14.4375 121.697 14.4375H128.353C131.146 14.4375 133.423 16.673 133.423 19.44C133.423 21.5828 132.006 23.329 129.981 24.1389L133.17 30.0525C133.339 30.3562 133.17 30.7274 132.774 30.7274H130.327C130.116 30.7274 130.007 30.6093 129.956 30.5165L126.86 24.3498H124.279V30.2803C124.279 30.5165 124.068 30.7189 123.832 30.7189H121.689C121.436 30.7189 121.242 30.508 121.242 30.2803V14.8762H121.25ZM128.092 21.8527C129.323 21.8527 130.395 20.7814 130.395 19.4822C130.395 18.2506 129.323 17.2214 128.092 17.2214H124.296V21.8527H128.092Z" fill="#191817"/>
<path d="M141.387 14.8762C141.387 14.64 141.573 14.4375 141.809 14.4375H147.326C151.814 14.4375 155.492 18.0903 155.492 22.5613C155.492 27.0324 151.814 30.7274 147.326 30.7274H141.809C141.573 30.7274 141.387 30.5165 141.387 30.2887V14.8846V14.8762ZM147.04 27.876C150.06 27.876 152.278 25.5983 152.278 22.5445C152.278 19.4907 150.068 17.2382 147.04 17.2382H144.382V27.876H147.04Z" fill="#191817"/>
<path d="M163.185 14.8762C163.185 14.64 163.396 14.4375 163.632 14.4375H165.8C166.037 14.4375 166.239 14.6484 166.239 14.8762V30.2803C166.239 30.5165 166.028 30.7189 165.8 30.7189H163.632C163.396 30.7189 163.185 30.508 163.185 30.2803V14.8762Z" fill="#191817"/>
<path d="M182.326 14.2007C184.68 14.2007 186.375 14.943 187.961 16.3603C188.172 16.5459 188.172 16.8243 187.987 17.0099L186.569 18.4777C186.409 18.6633 186.173 18.6633 185.987 18.4777C185.009 17.6173 183.71 17.1027 182.402 17.1027C179.424 17.1027 177.214 19.5913 177.214 22.527C177.214 25.4627 179.449 27.9007 182.427 27.9007C183.819 27.9007 185.009 27.3692 185.987 26.5763C186.173 26.416 186.434 26.4413 186.569 26.5763L188.012 28.0694C188.198 28.2297 188.155 28.5334 187.987 28.6937C186.409 30.229 184.41 30.9545 182.335 30.9545C177.678 30.9545 173.932 27.2511 173.932 22.6029C173.932 17.9547 177.678 14.2007 182.335 14.2007H182.326Z" fill="#191817"/>
<path d="M148.522 36.2695C148.522 36.1261 148.64 35.9995 148.792 35.9995H154.612C154.773 35.9995 154.882 36.1261 154.882 36.2695V37.4421C154.882 37.5855 154.764 37.712 154.612 37.712H150.378V40.0572H153.912C154.056 40.0572 154.182 40.1838 154.182 40.3272V41.5166C154.182 41.6769 154.056 41.7866 153.912 41.7866H150.378V44.2921H154.612C154.773 44.2921 154.882 44.4186 154.882 44.562V45.7346C154.882 45.878 154.764 46.0046 154.612 46.0046H148.792C148.631 46.0046 148.522 45.878 148.522 45.7346V36.2695Z" fill="#191817"/>
</svg>
