<svg width="238" height="54" viewBox="0 0 238 54" fill="none" xmlns="http://www.w3.org/2000/svg">
<g opacity="0.75" clip-path="url(#clip0_21_1376)">
<mask id="mask0_21_1376" style="mask-type:luminance" maskUnits="userSpaceOnUse" x="0" y="0" width="238" height="54">
<path d="M237.14 0H0V53.795H237.14V0Z" fill="white"/>
</mask>
<g mask="url(#mask0_21_1376)">
<path d="M12.41 0.139935V0.603935C8.392 0.808935 5.7 3.38594 5.7 7.20394C5.7 11.0219 8.08 12.6819 10.349 14.1199C12.009 15.2259 15.662 16.8319 18.484 18.2699C22.967 20.5949 25.124 24.5229 25.124 28.2309C25.124 34.7059 20.643 40.3509 12.175 40.3509C7.36 40.3509 4.261 37.9719 2.875 37.9719C1.989 37.9719 1.546 38.8019 0.939 39.5719H0.277L0 27.2919H0.72C2.032 34.1499 5.62 39.6379 11.62 39.6919C16.751 39.6419 19.257 35.9849 19.257 31.3369C19.257 28.5149 17.597 25.6369 13.834 23.4779C11.012 21.8729 8.634 21.0989 6.197 19.3779C3.044 17.2199 1.218 14.5629 1.218 11.0199C1.21644 9.56424 1.5072 8.12305 2.07304 6.78183C2.63888 5.44061 3.46828 4.22666 4.51206 3.21198C5.55584 2.1973 6.79274 1.40254 8.14942 0.874838C9.5061 0.347133 10.9549 0.0972258 12.41 0.139935Z" fill="#3C4251"/>
<path d="M29.5851 22.4561C29.5851 19.5311 29.5851 16.4421 25.3921 16.4421V15.8911L33.9441 14.4561H34.1641C34.1641 16.8301 34.0541 24.8291 34.0541 28.1951C34.0541 30.2951 34.1091 36.1401 34.1091 40.2231C34.1091 45.0791 33.9431 47.2311 33.4471 48.2791C31.8471 51.7541 27.2671 53.5211 23.8471 53.5211C20.0391 53.5211 18.7711 51.6451 18.7711 50.3761C18.7529 49.7698 18.9744 49.1809 19.3875 48.7369C19.8006 48.2929 20.3721 48.0296 20.9781 48.0041C22.2481 48.0041 22.8541 48.6111 23.5161 50.0451C24.1231 51.3151 24.8401 52.4731 25.8341 52.4731C26.9931 52.4731 28.6481 51.7001 29.2551 48.1141C29.6001 45.684 29.7109 43.2263 29.5861 40.7751L29.5851 22.4561Z" fill="#3C4251"/>
<path d="M59.3939 27.5871C59.3939 20.9121 55.9739 15.5591 51.2829 15.5591C45.5449 15.5591 43.1159 21.2411 43.1159 27.5321C43.1159 34.1531 46.5379 39.5601 51.2829 39.5601C57.1829 39.5601 59.3939 33.3251 59.3939 27.5871ZM51.2869 40.3871C43.7279 40.3871 37.8789 34.3181 37.8789 27.5321C37.8789 21.1321 43.4519 14.7861 51.2869 14.7861C59.5079 14.7861 64.6389 20.9661 64.6389 27.5861C64.6389 35.2001 57.5219 40.3871 51.2869 40.3871Z" fill="#3C4251"/>
<path d="M87.4509 27.532C87.4509 21.242 83.9199 15.559 79.5059 15.559C76.9129 15.559 75.0359 17.049 73.8789 20.138C73.2186 22.3772 72.9024 24.7038 72.9409 27.038C72.9409 30.514 73.1069 33.438 73.8789 35.48C74.2354 36.7116 74.9941 37.7884 76.0339 38.5386C77.0737 39.2887 78.3347 39.6691 79.6159 39.619C84.8579 39.619 87.4509 33.439 87.4509 27.535M68.5209 40.333C68.5759 37.298 68.6869 37.961 68.6869 32.443V4.8C68.6869 1.655 65.7619 1.489 65.0449 1.434V0.934L72.8799 0H73.0999V17.325C74.8649 15.559 78.1209 14.787 80.4939 14.787C87.8319 14.787 92.6869 20.304 92.6869 27.477C92.6869 35.753 86.9489 40.387 79.7209 40.387C74.3139 40.387 72.4929 38.346 71.4449 38.346C70.5619 38.346 69.8449 39.339 69.2379 40.333H68.5209Z" fill="#3C4251"/>
<path d="M113.81 22.6211C113.699 19.0351 111.769 15.5041 108.292 15.5041C104.651 15.5041 102.444 18.1521 101.562 22.6211H113.81ZM118.553 33.4901C118.333 36.3041 115.464 40.3901 108.898 40.3901C100.456 40.3901 95.988 34.9831 95.988 27.9761C95.988 21.3541 100.18 14.7881 108.512 14.7881C114.802 14.7881 118.167 18.9811 118.498 23.5061H101.453C101.291 24.7687 101.217 26.0412 101.233 27.3141C101.233 36.4141 106.915 38.6801 110.392 38.6801C114.917 38.6801 117.292 36.1421 117.892 33.3281L118.553 33.4901Z" fill="#3C4251"/>
<path d="M120.485 39.5561V39.0051C123.299 38.6741 124.568 38.2881 124.568 33.7051V22.8421C124.568 20.4151 124.458 16.2211 121.313 16.2211H120.265V15.6701L128.155 14.4551H128.321L129.038 19.5311C130.197 17.3251 131.962 14.7861 135.938 14.7861C139.082 14.7861 140.021 16.6621 140.021 17.5451C140.051 17.8264 140.022 18.111 139.936 18.3806C139.851 18.6503 139.71 18.8993 139.524 19.1119C139.337 19.3245 139.108 19.496 138.852 19.6157C138.595 19.7353 138.317 19.8005 138.034 19.8071C136.71 19.8071 136.213 18.9791 135.607 18.1521C135.054 17.3801 134.507 16.5521 133.4 16.5521C131.579 16.5521 130.089 18.4831 129.482 20.9111C129.055 23.3142 128.87 25.7541 128.931 28.1941C128.931 30.2941 128.987 32.9391 129.042 34.8151C129.097 38.2911 131.193 38.8981 133.179 39.0081V39.5561H120.485Z" fill="#3C4251"/>
<path d="M154.541 22.6211C154.541 18.9211 153.327 15.5041 150.072 15.5041C147.147 15.5041 145.547 18.5931 145.547 22.7871C145.547 27.0351 146.981 30.2351 150.347 30.2351C153.326 30.2351 154.539 27.0901 154.539 22.6211M145.877 45.7941C145.875 45.5311 145.817 45.2715 145.707 45.0326C145.597 44.7937 145.437 44.5811 145.239 44.4088C145.04 44.2365 144.807 44.1085 144.555 44.0334C144.303 43.9582 144.038 43.9377 143.777 43.9731C142.453 43.9731 141.294 45.2431 141.294 47.1181C141.294 50.2071 144.494 52.9111 149.794 52.9111C155.201 52.9111 158.894 49.6011 158.894 45.6281C158.894 42.7041 156.963 40.7181 153.818 40.3861C150.673 40.0541 150.177 40.3311 146.976 39.9451C143.943 39.6141 141.183 38.2341 141.183 35.0891C141.183 32.1091 143.997 30.5101 147.032 30.2891C143.832 29.0751 141.239 26.4831 141.239 22.8951C141.239 18.3171 145.156 14.7861 150.177 14.7861C152.264 14.7491 154.296 15.4523 155.914 16.7711C157.108 15.5475 158.73 14.8357 160.439 14.7861C163.139 14.7861 164.081 16.1651 164.081 17.0481C164.098 17.2705 164.07 17.4941 163.998 17.7052C163.926 17.9164 163.811 18.1105 163.662 18.2759C163.512 18.4412 163.33 18.5742 163.127 18.6668C162.924 18.7593 162.704 18.8094 162.481 18.8141C162.051 18.8036 161.634 18.6673 161.281 18.422C160.929 18.1766 160.655 17.8331 160.496 17.4341C160.305 17.0834 160.027 16.7877 159.688 16.5751C159.35 16.3626 158.963 16.2403 158.564 16.2201C158.152 16.2191 157.744 16.3018 157.364 16.463C156.985 16.6242 156.642 16.8607 156.357 17.1581C157.156 17.9316 157.792 18.8572 158.228 19.8805C158.664 20.9037 158.891 22.0039 158.895 23.1161C158.895 27.9721 154.095 30.9501 150.344 30.9501C149.712 30.9556 149.082 30.8817 148.468 30.7301C145.212 30.8961 143.888 32.1091 143.888 33.5991C143.888 34.9231 144.661 35.6401 146.648 35.8061C148.688 36.0261 151.282 35.8611 154.206 36.0261C159.944 36.3021 162.813 39.7791 162.813 44.0261C162.813 49.7651 157.572 53.7931 150.234 53.7931C143.999 53.7931 138.923 51.5301 138.923 46.5651C138.911 45.3064 139.387 44.0921 140.251 43.1767C141.115 42.2613 142.3 41.716 143.557 41.6551C145.764 41.6551 146.537 42.9781 146.537 43.8621C146.571 44.5342 146.418 45.2027 146.095 45.7931L145.877 45.7941Z" fill="#3C4251"/>
<path d="M165.464 40.387L164.964 31.835L165.515 31.78C166.288 35.255 168.826 39.67 172.909 39.67C175.281 39.67 177.874 38.291 177.874 35.421C177.874 33.159 176.495 31.229 171.974 29.021C167.947 27.034 165.906 24.721 165.906 21.406C165.906 17.985 169.216 14.731 173.63 14.731C175.562 14.731 177.714 15.724 178.43 15.724C179.036 15.724 179.258 15.338 179.478 14.896H179.978L180.478 22.013H179.927C178.989 19.42 177.278 15.503 173.581 15.503C172.544 15.459 171.528 15.8105 170.74 16.4863C169.951 17.1621 169.448 18.1119 169.333 19.144C169.333 21.627 170.547 23.227 174.96 25.213C179.539 27.313 181.968 29.461 181.968 33.324C181.968 37.352 178.823 40.441 173.03 40.441C170.105 40.441 168.174 39.117 167.292 39.117C166.685 39.117 166.244 39.67 165.857 40.387H165.464Z" fill="#3C4251"/>
<path d="M198.902 39.56V39.009C200.502 38.953 202.102 38.509 202.102 37.409C202.102 36.361 201.109 35.368 199.509 33.492C198.516 32.392 196.309 29.85 194.102 27.592L192.723 28.916C192.723 29.853 192.667 31.016 192.667 32.06C192.667 33.104 192.723 34.16 192.778 34.985C193.054 38.571 194.929 38.737 196.75 39.013V39.564H183.785V39.013C187.426 38.406 188.254 37.634 188.254 32.005V6.952C188.254 2.096 186.93 1.931 184.171 1.6V1.1L192.613 0H192.833C192.778 2.758 192.723 6.566 192.723 8.828V27.974C195.481 25.325 197.854 22.787 198.957 21.518C200.057 20.304 201.057 19.202 201.057 18.043C201.057 16.719 199.733 16.222 197.968 16V15.5H208.782V16C205.746 16.442 203.982 18.1 201.499 20.415C200.229 21.574 198.85 22.897 197.084 24.607C200.505 28.415 202.713 31.174 205.416 33.987C208.56 37.298 209.608 38.677 212.533 39.008V39.559L198.902 39.56Z" fill="#3C4251"/>
<path d="M221.197 29.131C218.934 30.29 217.114 31.889 217.114 34.758C217.089 35.3177 217.18 35.8766 217.381 36.3995C217.582 36.9225 217.889 37.3983 218.283 37.7971C218.676 38.1959 219.148 38.5091 219.668 38.7171C220.188 38.9252 220.746 39.0235 221.306 39.006C225.059 39.006 226.548 35.917 226.713 31.889C226.769 30.069 226.769 26.979 226.769 25.489C225.334 27.143 223.678 27.916 221.196 29.13M237.141 37.241C236.921 38.676 234.99 40.332 231.623 40.332C228.313 40.332 226.769 38.841 226.603 37.076C225.731 38.1431 224.626 38.9963 223.373 39.5702C222.12 40.1441 220.753 40.4235 219.375 40.387C214.85 40.387 212.312 37.959 212.312 34.318C212.312 31.229 214.412 28.855 217.885 27.972C220.203 27.366 222.85 27.144 224.616 26.207C226.161 25.324 226.768 24.331 226.768 21.572C226.768 18.428 225.223 15.504 222.243 15.504C221.678 15.4615 221.111 15.5489 220.585 15.7593C220.059 15.9697 219.588 16.2976 219.208 16.718C218.666 17.5041 218.273 18.383 218.049 19.311C217.773 20.359 217.332 21.242 215.842 21.242C215.563 21.2485 215.285 21.1965 215.027 21.0892C214.769 20.982 214.537 20.8218 214.344 20.6192C214.152 20.4165 214.004 20.1759 213.911 19.9127C213.817 19.6495 213.78 19.3696 213.801 19.091C213.801 17.104 216.284 14.791 222.188 14.791C228.092 14.791 231.288 16.778 231.288 20.585V33.214C231.288 37.628 232.06 38.841 234.212 38.841C234.763 38.8309 235.298 38.6506 235.742 38.3247C236.187 37.9989 236.519 37.5435 236.695 37.021L237.141 37.241Z" fill="#3C4251"/>
<path d="M44.2219 8.06597C44.2238 7.72021 44.2956 7.37841 44.433 7.06111C44.5704 6.74381 44.7705 6.45755 45.0213 6.21955C45.2721 5.98154 45.5684 5.7967 45.8925 5.67613C46.2165 5.55557 46.5616 5.50176 46.907 5.51795C47.2524 5.53414 47.5909 5.61999 47.9023 5.77034C48.2136 5.9207 48.4914 6.13245 48.7188 6.39287C48.9463 6.65329 49.1187 6.95701 49.2258 7.28577C49.3329 7.61453 49.3724 7.96155 49.3419 8.30597C49.2872 8.94144 48.9986 9.53396 48.5319 9.9687C48.0652 10.4034 47.4537 10.6494 46.8159 10.659C46.1307 10.6507 45.4759 10.3748 44.9912 9.89038C44.5066 9.40591 44.2305 8.75119 44.2219 8.06597Z" fill="#3C4251"/>
<path d="M51.6831 8.06597C51.685 7.72021 51.7568 7.37841 51.8942 7.06111C52.0315 6.74381 52.2316 6.45755 52.4824 6.21955C52.7332 5.98154 53.0296 5.7967 53.3536 5.67613C53.6777 5.55557 54.0228 5.50176 54.3682 5.51795C54.7135 5.53414 55.0521 5.61999 55.3634 5.77034C55.6748 5.9207 55.9526 6.13245 56.18 6.39287C56.4074 6.65329 56.5799 6.95701 56.687 7.28577C56.794 7.61453 56.8335 7.96155 56.8031 8.30597C56.7484 8.94144 56.4597 9.53396 55.993 9.9687C55.5263 10.4034 54.9148 10.6494 54.2771 10.659C53.5919 10.6507 52.9371 10.3748 52.4524 9.89038C51.9677 9.40591 51.6917 8.75119 51.6831 8.06597Z" fill="#3C4251"/>
</g>
</g>
<defs>
<clipPath id="clip0_21_1376">
<rect width="237.14" height="53.795" fill="white"/>
</clipPath>
</defs>
</svg>
