<svg width="175" height="168" viewBox="0 0 175 168" fill="none" xmlns="http://www.w3.org/2000/svg">
<path d="M38.562 45.9517C38.562 69.8378 57.195 89.9661 80.9901 91.7605C81.0291 91.7605 81.0551 91.7605 81.0941 91.7605C81.7702 91.7605 82.3424 91.2404 82.3944 90.5642C82.4464 89.8491 81.9133 89.2249 81.1981 89.1729C58.7553 87.4696 41.1756 68.4855 41.1756 45.9517C41.1756 23.4179 58.0142 5.21399 79.7938 2.86048V61.2169L57.091 25.6283C56.7789 25.1342 56.1808 24.9132 55.6347 25.0822C55.0755 25.2383 54.6985 25.7584 54.6985 26.3305L54.7635 65.4298C54.7635 66.145 55.3486 66.7301 56.0637 66.7301C56.7789 66.7301 57.364 66.145 57.364 65.4298L57.312 30.8034L79.9499 66.288C80.1969 66.6781 80.613 66.8861 81.0421 66.8861C81.0421 66.8861 81.0681 66.8861 81.0811 66.8861C81.0811 66.8861 81.0941 66.8861 81.1071 66.8861C81.1591 66.8861 81.1981 66.8601 81.2501 66.8601C81.3151 66.8601 81.3802 66.8471 81.4452 66.8211C81.9913 66.6651 82.4074 66.184 82.4074 65.5859V0.0258789L81.0031 0.129901C57.195 1.93729 38.562 22.0526 38.562 45.9517Z" fill="#191817"/>
<path d="M90.4951 0C89.78 0 89.0778 0.0130028 88.3627 0.0520111C87.6475 0.0780167 87.0884 0.689147 87.1274 1.4043C87.1664 2.11945 87.7776 2.65257 88.4797 2.63956C89.1428 2.61356 89.819 2.58755 90.4951 2.58755C114.394 2.58755 133.846 22.0267 133.846 45.9388C133.846 69.8509 114.407 89.2901 90.4951 89.2901C90.2351 89.2901 89.988 89.2901 89.728 89.2901V29.9454L102.068 52.0761C102.302 52.4922 102.731 52.7393 103.199 52.7393C103.667 52.7393 104.109 52.4792 104.33 52.0631C108.257 44.9636 113.614 35.3285 116.657 29.8674V64.5978C116.657 65.3129 117.242 65.8981 117.957 65.8981C118.672 65.8981 119.257 65.3129 119.257 64.5978V24.9393C119.257 24.3412 118.854 23.8341 118.282 23.6781C117.615 23.5047 116.349 25.091 114.485 28.4371C113.094 30.9206 111.248 34.2363 109.414 37.552C106.983 41.9209 104.564 46.2899 103.186 48.7604L89.5589 24.3022C89.2729 23.7821 88.6747 23.522 88.1026 23.6781C87.5305 23.8211 87.1274 24.3412 87.1274 24.9393V90.5383C87.1274 91.2275 87.6735 91.7996 88.3627 91.8386C89.0648 91.8776 89.78 91.8906 90.4951 91.8906C115.825 91.8906 136.447 71.2812 136.447 45.9388C136.447 20.5964 115.838 0 90.4951 0Z" fill="#191817"/>
<path d="M2.62241 152.093C2.64842 151.911 2.77845 151.768 3.0255 151.768H3.37657C3.55861 151.768 3.68864 151.859 3.75366 151.989L8.60369 162.391H8.6687L13.5187 151.989C13.5838 151.859 13.7008 151.768 13.8958 151.768H14.2469C14.4939 151.768 14.624 151.924 14.65 152.093L17.2505 166.903C17.3156 167.215 17.1465 167.41 16.8475 167.41H14.845C14.65 167.41 14.4679 167.228 14.4289 167.085L13.1287 158.725H13.0636L9.20182 167.384C9.14981 167.514 9.01978 167.631 8.82474 167.631H8.42165C8.22661 167.631 8.10959 167.527 8.04457 167.384L4.14374 158.725H4.07873L2.80445 167.085C2.77845 167.241 2.60941 167.41 2.40137 167.41H0.424945C0.138883 167.41 -0.0431554 167.215 0.00885569 166.903L2.63542 152.093H2.62241Z" fill="#191817"/>
<path d="M22.6465 166.839L29.499 152.002C29.564 151.872 29.668 151.755 29.876 151.755H30.0971C30.3181 151.755 30.4092 151.859 30.4742 152.002L37.2616 166.839C37.3916 167.125 37.2226 167.411 36.8845 167.411H34.9731C34.6481 167.411 34.492 167.281 34.336 166.969L33.2568 164.589H26.6644L25.5851 166.969C25.4941 167.19 25.2991 167.411 24.948 167.411H23.0366C22.7115 167.411 22.5295 167.125 22.6595 166.839H22.6465ZM32.1645 162.145L29.9541 157.295H29.889L27.7306 162.145H32.1645Z" fill="#191817"/>
<path d="M43.6589 152.406C43.6589 152.185 43.841 151.99 44.075 151.99H50.3814C53.0209 151.99 55.1924 154.109 55.1924 156.723C55.1924 158.751 53.8531 160.403 51.9287 161.17L54.9453 166.774C55.1014 167.06 54.9453 167.411 54.5683 167.411H52.2538C52.0587 167.411 51.9417 167.307 51.9027 167.216L48.9771 161.378H46.5325V166.995C46.5325 167.216 46.3375 167.411 46.1165 167.411H44.088C43.841 167.411 43.6719 167.216 43.6719 166.995V152.406H43.6589ZM50.1343 159.011C51.3046 159.011 52.3188 157.997 52.3188 156.762C52.3188 155.592 51.3046 154.629 50.1343 154.629H46.5455V159.011H50.1343Z" fill="#191817"/>
<path d="M62.7212 152.51C62.7212 152.224 62.9422 151.977 63.2543 151.977H65.1917C65.4778 151.977 65.7248 152.224 65.7248 152.51V158.465L71.277 152.211C71.368 152.107 71.4981 151.99 71.6931 151.99H73.9036C74.3197 151.99 74.5407 152.458 74.2547 152.783L68.5074 159.258L74.6837 166.644C74.9048 166.93 74.7228 167.411 74.2807 167.411H71.8751C71.6541 167.411 71.5241 167.32 71.4721 167.255L65.7248 160.155V166.878C65.7248 167.164 65.4778 167.411 65.1917 167.411H63.2543C62.9422 167.411 62.7212 167.164 62.7212 166.878V152.51Z" fill="#191817"/>
<path d="M81.4844 152.406C81.4844 152.185 81.6664 151.99 81.9005 151.99H90.8724C91.1194 151.99 91.2885 152.185 91.2885 152.406V154.213C91.2885 154.434 91.1064 154.629 90.8724 154.629H84.345V158.244H89.7931C90.0142 158.244 90.2092 158.439 90.2092 158.66V160.494C90.2092 160.741 90.0142 160.91 89.7931 160.91H84.345V164.771H90.8724C91.1194 164.771 91.2885 164.967 91.2885 165.188V166.995C91.2885 167.216 91.1064 167.411 90.8724 167.411H81.9005C81.6534 167.411 81.4844 167.216 81.4844 166.995V152.406Z" fill="#191817"/>
<path d="M100.923 154.629H97.5426C97.2955 154.629 97.1265 154.434 97.1265 154.213V152.406C97.1265 152.185 97.3085 151.99 97.5426 151.99H107.178C107.425 151.99 107.594 152.185 107.594 152.406V154.213C107.594 154.434 107.425 154.629 107.178 154.629H103.81V166.995C103.81 167.216 103.615 167.411 103.394 167.411H101.339C101.118 167.411 100.923 167.216 100.923 166.995V154.629Z" fill="#191817"/>
<path d="M129.451 152.406C129.451 152.185 129.633 151.99 129.868 151.99H138.839C139.086 151.99 139.256 152.185 139.256 152.406V154.213C139.256 154.434 139.073 154.629 138.839 154.629H132.312V158.244H137.76C137.981 158.244 138.176 158.439 138.176 158.66V160.494C138.176 160.741 137.981 160.91 137.76 160.91H132.312V164.771H138.839C139.086 164.771 139.256 164.967 139.256 165.188V166.995C139.256 167.216 139.073 167.411 138.839 167.411H129.868C129.62 167.411 129.451 167.216 129.451 166.995V152.406Z" fill="#191817"/>
<path d="M146.81 152.406C146.81 152.185 146.992 151.99 147.226 151.99H153.532C156.172 151.99 158.344 154.109 158.344 156.723C158.344 158.751 157.004 160.403 155.08 161.17L158.096 166.774C158.252 167.06 158.096 167.411 157.719 167.411H155.405C155.21 167.411 155.093 167.307 155.054 167.216L152.128 161.378H149.684V166.995C149.684 167.216 149.489 167.411 149.268 167.411H147.239C146.992 167.411 146.823 167.216 146.823 166.995V152.406H146.81ZM153.298 159.011C154.469 159.011 155.483 157.997 155.483 156.762C155.483 155.592 154.469 154.629 153.298 154.629H149.71V159.011H153.298Z" fill="#191817"/>
<path d="M164.975 165.252L165.768 163.887C165.95 163.575 166.327 163.575 166.522 163.731C166.626 163.796 168.421 165.096 169.851 165.096C170.995 165.096 171.853 164.342 171.853 163.393C171.853 162.274 170.904 161.494 169.058 160.753C166.99 159.921 164.91 158.595 164.91 155.994C164.91 154.031 166.366 151.768 169.864 151.768C172.113 151.768 173.83 152.912 174.272 153.25C174.493 153.38 174.558 153.757 174.402 153.979L173.57 155.24C173.388 155.5 173.063 155.682 172.802 155.5C172.62 155.396 170.956 154.291 169.734 154.291C168.512 154.291 167.796 155.123 167.796 155.838C167.796 156.878 168.616 157.58 170.397 158.308C172.529 159.167 175 160.454 175 163.289C175 165.564 173.037 167.657 169.929 167.657C167.146 167.657 165.521 166.357 165.079 165.941C164.884 165.746 164.767 165.629 164.962 165.278L164.975 165.252Z" fill="#191817"/>
<path d="M1.12726 119.028C1.12726 118.664 1.45233 118.377 1.81641 118.377H2.7136L17.6408 134.228H17.6798V119.418C17.6798 119.054 17.9659 118.742 18.3689 118.742H21.6716C22.0357 118.742 22.3608 119.067 22.3608 119.418V143.551C22.3608 143.915 22.0357 144.201 21.6716 144.201H20.8135L5.82126 127.739H5.78225V143.161C5.78225 143.525 5.49619 143.837 5.09311 143.837H1.8034C1.43933 143.837 1.11426 143.512 1.11426 143.161V119.028H1.12726Z" fill="#191817"/>
<path d="M47.0786 118.377C54.2561 118.377 59.9903 124.151 59.9903 131.328C59.9903 138.506 54.2561 144.201 47.0786 144.201C39.901 144.201 34.2058 138.493 34.2058 131.328C34.2058 124.164 39.914 118.377 47.0786 118.377ZM47.0786 139.546C51.6035 139.546 55.3223 135.853 55.3223 131.328C55.3223 126.803 51.5905 123.045 47.0786 123.045C42.5666 123.045 38.8608 126.816 38.8608 131.328C38.8608 135.84 42.5536 139.546 47.0786 139.546Z" fill="#191817"/>
<path d="M71.8233 119.417C71.8233 119.053 72.1094 118.741 72.5125 118.741H82.7716C87.0756 118.741 90.5863 122.187 90.5863 126.452C90.5863 129.755 88.4018 132.446 85.2812 133.694L90.1962 142.809C90.4563 143.277 90.1962 143.85 89.5851 143.85H85.8143C85.4892 143.85 85.3202 143.668 85.2422 143.525L80.4702 134.019H76.4913V143.16C76.4913 143.525 76.1662 143.837 75.8022 143.837H72.4994C72.1094 143.837 71.8103 143.511 71.8103 143.16V119.417H71.8233ZM82.3686 130.184C84.267 130.184 85.9183 128.532 85.9183 126.53C85.9183 124.631 84.267 123.045 82.3686 123.045H76.5173V130.184H82.3686Z" fill="#191817"/>
<path d="M102.848 119.417C102.848 119.053 103.134 118.741 103.498 118.741H112.002C118.919 118.741 124.588 124.371 124.588 131.263C124.588 138.154 118.919 143.85 112.002 143.85H103.498C103.134 143.85 102.848 143.525 102.848 143.173V119.43V119.417ZM111.573 139.468C116.228 139.468 119.647 135.957 119.647 131.25C119.647 126.543 116.241 123.071 111.573 123.071H107.477V139.468H111.573Z" fill="#191817"/>
<path d="M136.46 119.417C136.46 119.053 136.785 118.741 137.149 118.741H140.491C140.855 118.741 141.167 119.066 141.167 119.417V143.16C141.167 143.524 140.842 143.837 140.491 143.837H137.149C136.785 143.837 136.46 143.511 136.46 143.16V119.417Z" fill="#191817"/>
<path d="M165.963 118.377C169.591 118.377 172.205 119.522 174.649 121.706C174.974 121.992 174.974 122.421 174.688 122.707L172.504 124.97C172.257 125.256 171.893 125.256 171.607 124.97C170.098 123.644 168.096 122.85 166.08 122.85C161.49 122.85 158.084 126.686 158.084 131.211C158.084 135.736 161.529 139.494 166.119 139.494C168.265 139.494 170.098 138.675 171.607 137.453C171.893 137.205 172.296 137.244 172.504 137.453L174.727 139.754C175.013 140.001 174.948 140.469 174.688 140.716C172.257 143.083 169.175 144.201 165.976 144.201C158.799 144.201 153.026 138.493 153.026 131.328C153.026 124.164 158.799 118.377 165.976 118.377H165.963Z" fill="#191817"/>
<path d="M113.861 152.406C113.861 152.185 114.043 151.99 114.277 151.99H123.249C123.496 151.99 123.665 152.185 123.665 152.406V154.213C123.665 154.434 123.483 154.629 123.249 154.629H116.722V158.244H122.17C122.391 158.244 122.586 158.439 122.586 158.66V160.494C122.586 160.741 122.391 160.91 122.17 160.91H116.722V164.771H123.249C123.496 164.771 123.665 164.967 123.665 165.188V166.995C123.665 167.216 123.483 167.411 123.249 167.411H114.277C114.03 167.411 113.861 167.216 113.861 166.995V152.406Z" fill="#191817"/>
</svg>
