<?xml version="1.0" encoding="UTF-8"?>
<svg id="Layer_1" xmlns="http://www.w3.org/2000/svg" version="1.1" viewBox="0 0 768 768">
  <!-- Generator: Adobe Illustrator 29.1.0, SVG Export Plug-In . SVG Version: 2.1.0 Build 142)  -->
  <defs>
    <style>
      .st0 {
        fill: none;
        stroke: #2ce481;
        stroke-miterlimit: 10;
        stroke-width: 2px;
      }
    </style>
  </defs>
  <path class="st0" d="M384,75.6c41.7,0,82.1,8.1,120,24.2,36.7,15.6,69.7,37.8,98,66.1,28.4,28.4,50.6,61.3,66.1,98,16.1,38,24.2,78.3,24.2,120s-8.1,82.1-24.2,120c-15.6,36.7-37.8,69.7-66.1,98-28.4,28.4-61.3,50.6-98,66.1-38,16.1-78.3,24.2-120,24.2s-82.1-8.1-120-24.2c-36.7-15.6-69.7-37.8-98-66.1-28.4-28.4-50.6-61.3-66.1-98-16.1-38-24.2-78.3-24.2-120s8.1-82.1,24.2-120c15.6-36.7,37.8-69.7,66.1-98,28.4-28.4,61.3-50.6,98-66.1,38-16.1,78.3-24.2,120-24.2M384,8C176.3,8,8,176.3,8,384s168.3,376,376,376,376-168.3,376-376S591.7,8,384,8h0Z"/>
</svg>