<?xml version="1.0" encoding="UTF-8"?>
<svg id="Layer_1" xmlns="http://www.w3.org/2000/svg" version="1.1" viewBox="0 0 175 168">
  <!-- Generator: Adobe Illustrator 29.1.0, SVG Export Plug-In . SVG Version: 2.1.0 Build 142)  -->
  <defs>
    <style>
      .st0, .st1 {
        fill: #fff;
      }

      .st1 {
        stroke: #fff;
        stroke-miterlimit: 10;
      }
    </style>
  </defs>
  <path class="st1" d="M39.5,47.1c0,23.2,17.5,42.7,39.9,44.4h0c.6,0,1.2-.5,1.2-1.2s-.5-1.3-1.1-1.3c-21.1-1.7-37.7-20.1-37.7-41.9S57.8,7.6,78.3,5.3v56.6l-21.4-34.5c-.3-.5-.9-.7-1.4-.5s-.9.7-.9,1.2v37.9c0,.7.6,1.3,1.3,1.3s1.2-.6,1.2-1.3v-33.6l21.3,34.4c.2.4.6.6,1,.6h.3c.5-.2.9-.6.9-1.2V2.6h-1.3c-22.4,1.9-39.9,21.4-39.9,44.5h.1Z"/>
  <path class="st1" d="M92.3,2.6h-2c-.7,0-1.2.6-1.2,1.3s.6,1.2,1.3,1.2h1.9c22.5,0,40.8,18.8,40.8,42s-18.3,42-40.8,42h-.7V31.6l11.6,21.5c.2.4.6.6,1.1.6s.9-.3,1.1-.7c3.7-6.9,8.7-16.2,11.6-21.5v33.7c0,.7.6,1.3,1.2,1.3s1.2-.6,1.2-1.3V26.7c0-.6-.4-1.1-.9-1.2-.6-.2-1.8,1.4-3.6,4.6-1.3,2.4-3,5.6-4.8,8.8-2.3,4.2-4.6,8.5-5.9,10.9l-12.8-23.7c-.3-.5-.8-.8-1.4-.6-.5.1-.9.6-.9,1.2v63.6c0,.7.5,1.2,1.2,1.3h2c23.8,0,43.2-20,43.2-44.5S116.1,2.6,92.3,2.6Z"/>
  <path class="st0" d="M7.6,150c0-.2,0-.3.4-.3h.3c.2,0,.3,0,.4.2l4.6,10.1h0l4.6-10.1c0-.1.2-.2.4-.2h.3c.2,0,.4.2.4.3l2.4,14.4c0,.3,0,.5-.4.5h-1.9c-.2,0-.4-.2-.4-.3l-1.2-8.1h0l-3.6,8.4c0,.1-.2.2-.4.2h-.4c-.2,0-.3-.1-.4-.2l-3.7-8.4h0l-1.2,8.1c0,.2-.2.3-.4.3h-1.9c-.3,0-.4-.2-.4-.5l2.5-14.4h0Z"/>
  <path class="st0" d="M26.5,164.3l6.4-14.4c0-.1.2-.2.4-.2h.2c.2,0,.3.1.4.2l6.4,14.4c0,.3,0,.6-.4.6h-1.8c-.3,0-.5-.1-.6-.4l-1-2.3h-6.2l-1,2.3c0,.2-.3.4-.6.4h-1.8c-.3,0-.5-.3-.4-.6h0ZM35.4,159.8l-2.1-4.7h0l-2,4.7h4.2-.1Z"/>
  <path class="st0" d="M46.2,150.3c0-.2.2-.4.4-.4h5.9c2.5,0,4.5,2.1,4.5,4.6s-1.3,3.6-3.1,4.3l2.8,5.4c0,.3,0,.6-.4.6h-2.2c-.2,0-.3-.1-.3-.2l-2.8-5.7h-2.3v5.4c0,.2-.2.4-.4.4h-1.9c-.2,0-.4-.2-.4-.4v-14.1h.2ZM52.3,156.7c1.1,0,2.1-1,2.1-2.2s-1-2.1-2.1-2.1h-3.4v4.2h3.4Z"/>
  <path class="st0" d="M64.2,150.4c0-.3.2-.5.5-.5h1.8c.3,0,.5.2.5.5v5.8l5.2-6.1c0-.1.2-.2.4-.2h2.1c.4,0,.6.5.3.8l-5.4,6.3,5.8,7.2c.2.3,0,.7-.4.7h-2.3c-.2,0-.3,0-.4-.2l-5.4-6.9v6.5c0,.3-.2.5-.5.5h-1.8c-.3,0-.5-.2-.5-.5v-13.9h.1Z"/>
  <path class="st0" d="M81.8,150.3c0-.2.2-.4.4-.4h8.4c.2,0,.4.2.4.4v1.8c0,.2-.2.4-.4.4h-6.1v3.5h5.1c.2,0,.4.2.4.4v1.8c0,.2-.2.4-.4.4h-5.1v3.7h6.1c.2,0,.4.2.4.4v1.8c0,.2-.2.4-.4.4h-8.4c-.2,0-.4-.2-.4-.4v-14.1h0Z"/>
  <path class="st0" d="M100.1,152.5h-3.2c-.2,0-.4-.2-.4-.4v-1.8c0-.2.2-.4.4-.4h9.1c.2,0,.4.2.4.4v1.8c0,.2-.2.4-.4.4h-3.2v12c0,.2-.2.4-.4.4h-1.9c-.2,0-.4-.2-.4-.4v-12Z"/>
  <path class="st0" d="M127,150.3c0-.2.2-.4.4-.4h8.4c.2,0,.4.2.4.4v1.8c0,.2-.2.4-.4.4h-6.1v3.5h5.1c.2,0,.4.2.4.4v1.8c0,.2-.2.4-.4.4h-5.1v3.7h6.1c.2,0,.4.2.4.4v1.8c0,.2-.2.4-.4.4h-8.4c-.2,0-.4-.2-.4-.4v-14.1h0Z"/>
  <path class="st0" d="M143.3,150.3c0-.2.2-.4.4-.4h5.9c2.5,0,4.5,2.1,4.5,4.6s-1.3,3.6-3.1,4.3l2.8,5.4c.1.3,0,.6-.4.6h-2.2c-.2,0-.3-.1-.3-.2l-2.8-5.7h-2.3v5.4c0,.2-.2.4-.4.4h-1.9c-.2,0-.4-.2-.4-.4v-14.1h.2ZM149.4,156.7c1.1,0,2.1-1,2.1-2.2s-1-2.1-2.1-2.1h-3.4v4.2h3.4Z"/>
  <path class="st0" d="M160.4,162.8l.7-1.3c.2-.3.5-.3.7-.2,0,0,1.8,1.3,3.1,1.3s1.9-.7,1.9-1.7-.9-1.8-2.6-2.6c-1.9-.8-3.9-2.1-3.9-4.6s1.4-4.1,4.7-4.1,3.7,1.1,4.1,1.4c.2.1.3.5.1.7l-.8,1.2c-.2.3-.5.4-.7.3-.2-.1-1.7-1.2-2.9-1.2s-1.8.8-1.8,1.5c0,1,.8,1.7,2.4,2.4,2,.8,4.3,2.1,4.3,4.8s-1.8,4.2-4.8,4.2-4.1-1.3-4.6-1.7c-.2-.2-.3-.3-.1-.6h0l.2.2Z"/>
  <path class="st0" d="M6.2,118c0-.4.3-.6.6-.6h.8l14,15.4h0v-14.4c0-.4.3-.7.6-.7h3.1c.3,0,.6.3.6.7v23.4c0,.4-.3.6-.6.6h-.8l-14.1-16h0v15c0,.4-.3.7-.6.7h-3.1c-.3,0-.6-.3-.6-.7v-23.4h0Z"/>
  <path class="st0" d="M49.5,117.3c6.8,0,12.2,5.6,12.2,12.6s-5.4,12.5-12.2,12.5-12.1-5.5-12.1-12.5,5.4-12.6,12.1-12.6ZM49.5,137.8c4.3,0,7.8-3.6,7.8-8s-3.5-8-7.8-8-7.7,3.7-7.7,8,3.5,8,7.7,8Z"/>
  <path class="st0" d="M72.7,118.3c0-.4.3-.7.6-.7h9.7c4.1,0,7.4,3.3,7.4,7.5s-2.1,5.8-5,7l4.6,8.8c.2.5,0,1-.6,1h-3.5c-.3,0-.5-.2-.5-.3l-4.5-9.2h-3.7v8.9c0,.4-.3.7-.6.7h-3.1c-.4,0-.6-.3-.6-.7v-23h-.2ZM82.7,128.8c1.8,0,3.3-1.6,3.3-3.5s-1.6-3.4-3.3-3.4h-5.5v6.9h5.5Z"/>
  <path class="st0" d="M101.9,118.3c0-.4.3-.7.6-.7h8c6.5,0,11.8,5.5,11.8,12.1s-5.3,12.2-11.8,12.2h-8c-.3,0-.6-.3-.6-.7v-23h0ZM110.2,137.8c4.4,0,7.6-3.4,7.6-8s-3.2-7.9-7.6-7.9h-3.9v15.9h3.9Z"/>
  <path class="st0" d="M133.6,118.3c0-.4.3-.7.6-.7h3.1c.3,0,.6.3.6.7v23c0,.4-.3.7-.6.7h-3.1c-.3,0-.6-.3-.6-.7v-23Z"/>
  <path class="st0" d="M161.3,117.3c3.4,0,5.9,1.1,8.2,3.2.3.3.3.7,0,1l-2.1,2.2c-.2.3-.6.3-.8,0-1.4-1.3-3.3-2.1-5.2-2.1-4.3,0-7.5,3.7-7.5,8.1s3.2,8,7.6,8,3.7-.8,5.2-2c.3-.2.6-.2.8,0l2.1,2.2c.3.2.2.7,0,.9-2.3,2.3-5.2,3.4-8.2,3.4-6.8,0-12.2-5.5-12.2-12.5s5.4-12.6,12.2-12.6h0v.2Z"/>
  <path class="st0" d="M112.3,150.3c0-.2.2-.4.4-.4h8.4c.2,0,.4.2.4.4v1.8c0,.2-.2.4-.4.4h-6.1v3.5h5.1c.2,0,.4.2.4.4v1.8c0,.2-.2.4-.4.4h-5.1v3.7h6.1c.2,0,.4.2.4.4v1.8c0,.2-.2.4-.4.4h-8.4c-.2,0-.4-.2-.4-.4v-14.1h0Z"/>
</svg>