<?xml version="1.0" encoding="UTF-8"?>
<svg id="Layer_1" xmlns="http://www.w3.org/2000/svg" version="1.1" viewBox="0 0 291.9 91.9">
  <!-- Generator: Adobe Illustrator 29.1.0, SVG Export Plug-In . SVG Version: 2.1.0 Build 142)  -->
  <defs>
    <style>
      .st0 {
        stroke: #000;
        stroke-miterlimit: 10;
        stroke-width: 1.8px;
      }
    </style>
  </defs>
  <path class="st0" d="M4.1,46c0,21.9,17.1,40.4,38.9,42h0c.6,0,1.1-.5,1.2-1.1,0-.6-.5-1.2-1.1-1.3-20.5-1.6-36.7-19-36.7-39.6S22,8.6,41.9,6.5v53.6L21.1,27.3c-.3-.5-.8-.6-1.4-.5s-.8.6-.8,1.1v35.9c0,.6.6,1.2,1.3,1.2s1.2-.6,1.2-1.2v-31.7l20.7,32.6c.2.4.6.6,1,.6h.3c.5-.2.9-.6.9-1.1V3.8h-1.3C21.2,5.5,4.1,24.1,4.1,46Z"/>
  <path class="st0" d="M54.6,3.8h-1.9c-.6,0-1.2.6-1.1,1.3,0,.6.6,1.1,1.3,1.1h1.8c21.9,0,39.8,17.8,39.8,39.8s-17.8,39.8-39.8,39.8h-.7V31.2l11.3,20.3c.2.4.6.6,1,.6s.8-.3,1-.6c3.6-6.5,8.5-15.3,11.3-20.4v31.8c0,.6.6,1.2,1.2,1.2s1.2-.6,1.2-1.2V26.6c0-.6-.4-1-.9-1.2-.6-.2-1.7,1.3-3.5,4.4-1.3,2.3-2.9,5.3-4.7,8.3-2.2,4-4.4,8-5.7,10.3l-12.5-22.5c-.3-.5-.8-.7-1.4-.6-.6,0-.9.6-.9,1.2v60.2c0,.6.5,1.2,1.1,1.2h1.9c23.2,0,42.2-18.9,42.2-42.2S77.9,3.8,54.6,3.8Z"/>
  <path d="M119.5,55c0-.2.2-.3.4-.3h.4c.2,0,.3,0,.4.2l4.9,10.4h0l4.8-10.4s.2-.2.4-.2h.4c.2,0,.4.2.4.3l2.6,14.8c0,.3-.1.5-.4.5h-2c-.2,0-.4-.2-.4-.3l-1.3-8.4h0l-3.9,8.7s-.2.2-.4.2h-.4c-.2,0-.3,0-.4-.2l-3.9-8.7h0l-1.3,8.4c0,.2-.2.3-.4.3h-2c-.3,0-.5-.2-.4-.5l2.6-14.8h0Z"/>
  <path d="M139.6,69.8l6.9-14.8s.2-.2.4-.2h.2c.2,0,.3,0,.4.2l6.8,14.8c.1.3,0,.6-.4.6h-1.9c-.3,0-.5,0-.6-.4l-1.1-2.4h-6.6l-1.1,2.4c0,.2-.3.4-.6.4h-1.9c-.3,0-.5-.3-.4-.6h0ZM149.1,65.1l-2.2-4.9h0l-2.2,4.9h4.4Z"/>
  <path d="M160.6,55.3c0-.2.2-.4.4-.4h6.3c2.6,0,4.8,2.1,4.8,4.7s-1.3,3.7-3.3,4.4l3,5.6c.2.3,0,.6-.4.6h-2.3c-.2,0-.3,0-.4-.2l-2.9-5.8h-2.4v5.6c0,.2-.2.4-.4.4h-2c-.2,0-.4-.2-.4-.4v-14.6h0ZM167.1,61.9c1.2,0,2.2-1,2.2-2.2s-1-2.1-2.2-2.1h-3.6v4.4h3.6Z"/>
  <path d="M179.6,55.4c0-.3.2-.5.5-.5h1.9c.3,0,.5.2.5.5v6l5.6-6.3s.2-.2.4-.2h2.2c.4,0,.6.5.4.8l-5.7,6.5,6.2,7.4c.2.3,0,.8-.4.8h-2.4c-.2,0-.4,0-.4-.2l-5.7-7.1v6.7c0,.3-.2.5-.5.5h-1.9c-.3,0-.5-.2-.5-.5v-14.4h-.2Z"/>
  <path d="M198.4,55.3c0-.2.2-.4.4-.4h9c.2,0,.4.2.4.4v1.8c0,.2-.2.4-.4.4h-6.5v3.6h5.4c.2,0,.4.2.4.4v1.8c0,.2-.2.4-.4.4h-5.4v3.9h6.5c.2,0,.4.2.4.4v1.8c0,.2-.2.4-.4.4h-9c-.2,0-.4-.2-.4-.4v-14.6h0Z"/>
  <path d="M217.8,57.6h-3.4c-.2,0-.4-.2-.4-.4v-1.8c0-.2.2-.4.4-.4h9.6c.2,0,.4.2.4.4v1.8c0,.2-.2.4-.4.4h-3.4v12.4c0,.2-.2.4-.4.4h-2.1c-.2,0-.4-.2-.4-.4v-12.4h0Z"/>
  <path d="M246.4,55.3c0-.2.2-.4.4-.4h9c.2,0,.4.2.4.4v1.8c0,.2-.2.4-.4.4h-6.5v3.6h5.4c.2,0,.4.2.4.4v1.8c0,.2-.2.4-.4.4h-5.4v3.9h6.5c.2,0,.4.2.4.4v1.8c0,.2-.2.4-.4.4h-9c-.2,0-.4-.2-.4-.4v-14.6h0Z"/>
  <path d="M263.7,55.3c0-.2.2-.4.4-.4h6.3c2.6,0,4.8,2.1,4.8,4.7s-1.3,3.7-3.3,4.4l3,5.6c.2.3,0,.6-.4.6h-2.3c-.2,0-.3,0-.4-.2l-2.9-5.8h-2.4v5.6c0,.2-.2.4-.4.4h-2c-.2,0-.4-.2-.4-.4v-14.6h0ZM270.2,61.9c1.2,0,2.2-1,2.2-2.2s-1-2.1-2.2-2.1h-3.6v4.4h3.6Z"/>
  <path d="M281.9,68.2l.8-1.4c.2-.3.6-.3.8-.2.1,0,1.9,1.4,3.3,1.4s2-.8,2-1.7-.9-1.9-2.8-2.6c-2.1-.8-4.1-2.2-4.1-4.8s1.5-4.2,5-4.2,4,1.1,4.4,1.5c.2,0,.3.5.1.7l-.8,1.3c-.2.3-.5.4-.8.3-.2,0-1.8-1.2-3.1-1.2s-1.9.8-1.9,1.5c0,1,.8,1.7,2.6,2.5,2.1.9,4.6,2.1,4.6,5s-2,4.4-5.1,4.4-4.4-1.3-4.9-1.7c-.2-.2-.3-.3-.1-.7h0Z"/>
  <path d="M118,22c0-.4.3-.7.7-.7h.9l14.9,15.9h0v-14.8c0-.4.3-.7.7-.7h3.3c.4,0,.7.3.7.7v24.1c0,.4-.3.7-.7.7h-.9l-15-16.5h0v15.4c0,.4-.3.7-.7.7h-3.3c-.4,0-.7-.3-.7-.7v-24.1h0Z"/>
  <path d="M164,21.3c7.2,0,12.9,5.8,12.9,13s-5.7,12.9-12.9,12.9-12.9-5.7-12.9-12.9,5.7-13,12.9-13ZM164,42.5c4.5,0,8.2-3.7,8.2-8.2s-3.7-8.3-8.2-8.3-8.2,3.8-8.2,8.3,3.7,8.2,8.2,8.2Z"/>
  <path d="M188.7,22.3c0-.4.3-.7.7-.7h10.3c4.3,0,7.8,3.4,7.8,7.7s-2.2,6-5.3,7.2l4.9,9.1c.3.5,0,1-.6,1h-3.8c-.3,0-.5-.2-.6-.3l-4.8-9.5h-4v9.1c0,.4-.3.7-.7.7h-3.3c-.4,0-.7-.3-.7-.7v-23.7h.1ZM199.3,33.1c1.9,0,3.5-1.7,3.5-3.7s-1.7-3.5-3.5-3.5h-5.9v7.1h5.9Z"/>
  <path d="M219.8,22.3c0-.4.3-.7.7-.7h8.5c6.9,0,12.6,5.6,12.6,12.5s-5.7,12.6-12.6,12.6h-8.5c-.4,0-.7-.3-.7-.7v-23.7h0ZM228.5,42.4c4.7,0,8.1-3.5,8.1-8.2s-3.4-8.2-8.1-8.2h-4.1v16.4h4.1Z"/>
  <path d="M253.4,22.3c0-.4.3-.7.7-.7h3.3c.4,0,.7.3.7.7v23.7c0,.4-.3.7-.7.7h-3.3c-.4,0-.7-.3-.7-.7v-23.7Z"/>
  <path d="M282.9,21.3c3.6,0,6.2,1.1,8.7,3.3.3.3.3.7,0,1l-2.2,2.3c-.2.3-.6.3-.9,0-1.5-1.3-3.5-2.1-5.5-2.1-4.6,0-8,3.8-8,8.4s3.4,8.3,8,8.3,4-.8,5.5-2c.3-.2.7-.2.9,0l2.2,2.3c.3.2.2.7,0,1-2.4,2.4-5.5,3.5-8.7,3.5-7.2,0-12.9-5.7-12.9-12.9s5.8-13,12.9-13h0Z"/>
  <path d="M230.8,55.3c0-.2.2-.4.4-.4h9c.2,0,.4.2.4.4v1.8c0,.2-.2.4-.4.4h-6.5v3.6h5.4c.2,0,.4.2.4.4v1.8c0,.2-.2.4-.4.4h-5.4v3.9h6.5c.2,0,.4.2.4.4v1.8c0,.2-.2.4-.4.4h-9c-.2,0-.4-.2-.4-.4v-14.6h0Z"/>
</svg>