<?xml version="1.0" encoding="UTF-8"?>
<svg id="Layer_1" xmlns="http://www.w3.org/2000/svg" xmlns:xlink="http://www.w3.org/1999/xlink" version="1.1" viewBox="0 0 238 54">
  <!-- Generator: Adobe Illustrator 29.1.0, SVG Export Plug-In . SVG Version: 2.1.0 Build 142)  -->
  <defs>
    <style>
      .st0 {
        fill: none;
      }

      .st1 {
        mask: url(#mask);
      }

      .st2 {
        fill: #fff;
      }
    </style>
    <mask id="mask" x="0" y="0" width="237.1" height="53.8" maskUnits="userSpaceOnUse">
      <g id="mask0_21_1376">
        <path class="st2" d="M237.1,0H0v53.8h237.1V0Z"/>
      </g>
    </mask>
  </defs>
  <rect class="st0" width="237.1" height="53.8"/>
  <g class="st1">
    <g>
      <path d="M12.4.1v.5c-4,.2-6.7,2.8-6.7,6.6s2.4,5.5,4.6,6.9c1.7,1.1,5.3,2.7,8.1,4.1,4.5,2.3,6.6,6.3,6.6,10,0,6.5-4.5,12.1-12.9,12.1s-7.9-2.4-9.3-2.4-1.3.8-1.9,1.6H.3l-.3-12.3h.7c1.3,6.9,4.9,12.3,10.9,12.4,5.1,0,7.6-3.7,7.6-8.4s-1.7-5.7-5.4-7.9c-2.8-1.6-5.2-2.4-7.6-4.1-3.2-2.2-5-4.8-5-8.4,0-1.5.3-2.9.9-4.2s1.4-2.6,2.4-3.6c1-1,2.3-1.8,3.6-2.3,1.4-.5,2.8-.8,4.3-.7Z"/>
      <path d="M29.6,22.5c0-2.9,0-6-4.2-6v-.6l8.6-1.4h.2c0,2.4-.1,10.4-.1,13.7s0,7.9,0,12-.2,7-.7,8.1c-1.6,3.5-6.2,5.2-9.6,5.2s-5.1-1.9-5.1-3.1c0-.6.2-1.2.6-1.6.4-.4,1-.7,1.6-.7,1.3,0,1.9.6,2.5,2,.6,1.3,1.3,2.4,2.3,2.4s2.8-.8,3.4-4.4c.3-2.4.5-4.9.3-7.3v-18.3Z"/>
      <path d="M59.4,27.6c0-6.7-3.4-12-8.1-12s-8.2,5.7-8.2,12,3.4,12,8.2,12,8.1-6.2,8.1-12ZM51.3,40.4c-7.6,0-13.4-6.1-13.4-12.9s5.6-12.7,13.4-12.7,13.4,6.2,13.4,12.8-7.1,12.8-13.4,12.8Z"/>
      <path d="M87.5,27.5c0-6.3-3.5-12-7.9-12s-4.5,1.5-5.6,4.6c-.7,2.2-1,4.6-.9,6.9,0,3.5.2,6.4.9,8.4.4,1.2,1.1,2.3,2.2,3.1,1,.8,2.3,1.1,3.6,1.1,5.2,0,7.8-6.2,7.8-12.1M68.5,40.3c0-3,.2-2.4.2-7.9V4.8c0-3.1-2.9-3.3-3.6-3.4v-.5l7.8-.9h.2v17.3c1.8-1.8,5-2.5,7.4-2.5,7.3,0,12.2,5.5,12.2,12.7s-5.7,12.9-13,12.9-7.2-2-8.3-2-1.6,1-2.2,2h-.7Z"/>
      <path d="M113.8,22.6c-.1-3.6-2-7.1-5.5-7.1s-5.8,2.6-6.7,7.1h12.2ZM118.6,33.5c-.2,2.8-3.1,6.9-9.7,6.9s-12.9-5.4-12.9-12.4,4.2-13.2,12.5-13.2,9.7,4.2,10,8.7h-17c-.2,1.3-.2,2.5-.2,3.8,0,9.1,5.7,11.4,9.2,11.4s6.9-2.5,7.5-5.4l.7.2Z"/>
      <path d="M120.5,39.6v-.6c2.8-.3,4.1-.7,4.1-5.3v-10.9c0-2.4-.1-6.6-3.3-6.6h-1v-.6l7.9-1.2h.2l.7,5.1c1.2-2.2,2.9-4.7,6.9-4.7s4.1,1.9,4.1,2.8c0,.3,0,.6,0,.8,0,.3-.2.5-.4.7-.2.2-.4.4-.7.5-.3.1-.5.2-.8.2-1.3,0-1.8-.8-2.4-1.7-.6-.8-1.1-1.6-2.2-1.6-1.8,0-3.3,1.9-3.9,4.4-.4,2.4-.6,4.8-.6,7.3,0,2.1,0,4.7.1,6.6,0,3.5,2.2,4.1,4.1,4.2v.5h-12.7Z"/>
      <path d="M154.5,22.6c0-3.7-1.2-7.1-4.5-7.1s-4.5,3.1-4.5,7.3,1.4,7.4,4.8,7.4,4.2-3.1,4.2-7.6M145.9,45.8c0-.3,0-.5-.2-.8s-.3-.5-.5-.6c-.2-.2-.4-.3-.7-.4-.3,0-.5,0-.8,0-1.3,0-2.5,1.3-2.5,3.1,0,3.1,3.2,5.8,8.5,5.8s9.1-3.3,9.1-7.3-1.9-4.9-5.1-5.2c-3.1-.3-3.6,0-6.8-.4-3-.3-5.8-1.7-5.8-4.9s2.8-4.6,5.8-4.8c-3.2-1.2-5.8-3.8-5.8-7.4s3.9-8.1,8.9-8.1c2.1,0,4.1.7,5.7,2,1.2-1.2,2.8-1.9,4.5-2,2.7,0,3.6,1.4,3.6,2.3,0,.2,0,.4,0,.7,0,.2-.2.4-.3.6-.2.2-.3.3-.5.4-.2,0-.4.1-.6.1-.4,0-.8-.1-1.2-.4-.4-.2-.6-.6-.8-1-.2-.4-.5-.6-.8-.9-.3-.2-.7-.3-1.1-.4-.4,0-.8,0-1.2.2-.4.2-.7.4-1,.7.8.8,1.4,1.7,1.9,2.7.4,1,.7,2.1.7,3.2,0,4.9-4.8,7.8-8.6,7.8-.6,0-1.3,0-1.9-.2-3.3.2-4.6,1.4-4.6,2.9s.8,2,2.8,2.2c2,.2,4.6,0,7.6.2,5.7.3,8.6,3.8,8.6,8s-5.2,9.8-12.6,9.8-11.3-2.3-11.3-7.2c0-1.3.5-2.5,1.3-3.4.9-.9,2-1.5,3.3-1.5,2.2,0,3,1.3,3,2.2,0,.7-.1,1.3-.4,1.9h-.2Z"/>
      <path d="M165.5,40.4l-.5-8.6h.6c.8,3.4,3.3,7.8,7.4,7.8s5-1.4,5-4.2-1.4-4.2-5.9-6.4c-4-2-6.1-4.3-6.1-7.6s3.3-6.7,7.7-6.7,4.1,1,4.8,1,.8-.4,1-.8h.5l.5,7.1h-.6c-.9-2.6-2.6-6.5-6.3-6.5-1,0-2.1.3-2.8,1-.8.7-1.3,1.6-1.4,2.7,0,2.5,1.2,4.1,5.6,6.1,4.6,2.1,7,4.2,7,8.1s-3.1,7.1-8.9,7.1-4.9-1.3-5.7-1.3-1,.6-1.4,1.3h-.4Z"/>
      <path d="M198.9,39.6v-.6c1.6,0,3.2-.5,3.2-1.6s-1-2-2.6-3.9c-1-1.1-3.2-3.6-5.4-5.9l-1.4,1.3c0,.9,0,2.1,0,3.1s0,2.1.1,2.9c.3,3.6,2.2,3.8,4,4v.6h-13v-.6c3.6-.6,4.5-1.4,4.5-7V7c0-4.9-1.3-5-4.1-5.4v-.5l8.4-1.1h.2c0,2.8-.1,6.6-.1,8.8v19.1c2.8-2.6,5.1-5.2,6.2-6.5,1.1-1.2,2.1-2.3,2.1-3.5s-1.3-1.8-3.1-2v-.5h10.8v.5c-3,.4-4.8,2.1-7.3,4.4-1.3,1.2-2.6,2.5-4.4,4.2,3.4,3.8,5.6,6.6,8.3,9.4,3.1,3.3,4.2,4.7,7.1,5v.6h-13.6Z"/>
      <path d="M221.2,29.1c-2.3,1.2-4.1,2.8-4.1,5.6,0,.6,0,1.1.3,1.6.2.5.5,1,.9,1.4.4.4.9.7,1.4.9.5.2,1.1.3,1.6.3,3.8,0,5.2-3.1,5.4-7.1,0-1.8,0-4.9,0-6.4-1.4,1.7-3.1,2.4-5.6,3.6M237.1,37.2c-.2,1.4-2.2,3.1-5.5,3.1s-4.9-1.5-5-3.3c-.9,1.1-2,1.9-3.2,2.5-1.3.6-2.6.9-4,.8-4.5,0-7.1-2.4-7.1-6.1s2.1-5.5,5.6-6.3c2.3-.6,5-.8,6.7-1.8,1.5-.9,2.2-1.9,2.2-4.6s-1.5-6.1-4.5-6.1c-.6,0-1.1,0-1.7.3-.5.2-1,.5-1.4,1-.5.8-.9,1.7-1.2,2.6-.3,1-.7,1.9-2.2,1.9-.3,0-.6,0-.8-.2-.3-.1-.5-.3-.7-.5-.2-.2-.3-.4-.4-.7,0-.3-.1-.5-.1-.8,0-2,2.5-4.3,8.4-4.3s9.1,2,9.1,5.8v12.6c0,4.4.8,5.6,2.9,5.6.6,0,1.1-.2,1.5-.5.4-.3.8-.8,1-1.3l.4.2Z"/>
      <path d="M44.2,8.1c0-.3,0-.7.2-1,.1-.3.3-.6.6-.8.3-.2.5-.4.9-.5.3-.1.7-.2,1-.2.3,0,.7.1,1,.3.3.2.6.4.8.6.2.3.4.6.5.9s.1.7.1,1c0,.6-.3,1.2-.8,1.7-.5.4-1.1.7-1.7.7-.7,0-1.3-.3-1.8-.8-.5-.5-.8-1.1-.8-1.8Z"/>
      <path d="M51.7,8.1c0-.3,0-.7.2-1,.1-.3.3-.6.6-.8.3-.2.5-.4.9-.5.3-.1.7-.2,1-.2.3,0,.7.1,1,.3.3.2.6.4.8.6.2.3.4.6.5.9.1.3.1.7.1,1,0,.6-.3,1.2-.8,1.7-.5.4-1.1.7-1.7.7-.7,0-1.3-.3-1.8-.8-.5-.5-.8-1.1-.8-1.8Z"/>
    </g>
  </g>
</svg>