<svg width="382" height="219" viewBox="0 0 382 219" fill="none" xmlns="http://www.w3.org/2000/svg">
<rect opacity="0.5" width="382" height="219" rx="109.5" fill="#E0DACD"/>
<mask id="mask0_45_128" style="mask-type:alpha" maskUnits="userSpaceOnUse" x="0" y="0" width="382" height="219">
<rect width="382" height="219" rx="109.5" fill="#88A7BE"/>
</mask>
<g mask="url(#mask0_45_128)">
<rect x="151" y="-33" width="179" height="177" rx="88.5" fill="#FCC3B6" stroke="#EDEAE3" stroke-width="10"/>
<rect x="274" y="53" width="87" height="84" rx="42" fill="#3C4251" stroke="#EDEAE3" stroke-width="10"/>
<path d="M177.625 37.4375C160.633 37.4375 145.398 46.5195 136.902 60.875C128.406 75.5234 128.406 93.3945 136.902 107.75C145.398 122.398 160.633 131.188 177.625 131.188C194.324 131.188 209.559 122.398 218.055 107.75C226.551 93.3945 226.551 75.5234 218.055 60.875C209.559 46.5195 194.324 37.4375 177.625 37.4375ZM177.625 135.875C159.168 135.875 142.176 126.207 132.801 110.094C123.719 94.2734 123.719 74.6445 132.801 58.5312C142.176 42.7109 159.168 32.75 177.625 32.75C195.789 32.75 212.781 42.7109 222.156 58.5312C231.238 74.6445 231.238 94.2734 222.156 110.094C212.781 126.207 195.789 135.875 177.625 135.875ZM165.906 74.9375V77.2812V81.9688H170.594H172.938V86.6562H170.594H165.906V91.3438V93.6875H161.219V91.3438V86.6562H156.531H154.188V81.9688H156.531H161.219V77.2812V74.9375H165.906ZM116.688 65.5625H121.375V103.062H116.688V65.5625ZM233.875 65.5625H238.562V103.062H233.875V65.5625ZM129.578 121.812C130.75 123.57 132.215 125.035 133.387 126.5H129.578L117.859 178.062H140.125V154.625V152.281H142.469H212.781H215.125V154.625V178.062H237.098L225.379 126.5H221.57C223.035 125.035 224.207 123.57 225.672 121.812H229.188L242.078 178.062L243.25 182.75H238.27H116.688H112L112.879 178.062L126.062 121.812H129.578ZM144.812 178.062H161.219V168.688V166.344H165.906V168.688V178.062H189.344V168.688V166.344H194.031V168.688V178.062H210.438V156.969H144.812V178.062ZM182.312 112.438C197.84 112.438 210.438 99.8398 210.438 84.3125V76.9883L199.012 65.5625H155.945L144.812 76.9883V84.3125C144.812 99.8398 157.41 112.438 172.938 112.438H182.312ZM154.188 60.875H201.062L215.125 74.9375V84.3125C215.125 102.477 200.184 117.125 182.312 117.125H172.938C154.773 117.125 140.125 102.477 140.125 84.3125V74.9375L154.188 60.875Z" fill="#3C4251"/>
</g>
</svg>
