<svg width="80" height="71" viewBox="0 0 80 71" fill="none" xmlns="http://www.w3.org/2000/svg">
<path d="M57.25 42.3125C64.2227 42.3125 70.6484 38.6211 74.2031 32.4688C77.7578 26.4531 77.7578 18.9336 74.2031 12.7812C70.6484 6.76562 64.2227 2.9375 57.25 2.9375C50.1406 2.9375 43.7148 6.76562 40.1602 12.7812C36.6055 18.9336 36.6055 26.4531 40.1602 32.4688C43.7148 38.6211 50.1406 42.3125 57.25 42.3125ZM57.25 44.5C46.5859 44.5 37.6992 36.9805 35.7852 27C21.4297 30.8281 11.3125 43.8164 11.3125 58.7188V68.5625H40.8438H41.9375H46.3125V66.7852C46.3125 64.1875 44.125 62 41.5273 62H35.375H34.2812V60.9062V55.4375C34.2812 51.8828 31.2734 48.875 27.7188 48.875H23.3438H22.25V46.6875H23.3438H27.7188C32.5039 46.6875 36.4688 50.6523 36.4688 55.4375V59.6758L53.5586 48.0547L55.3359 46.8242V48.875V68.5625H61.625V44.0898C60.1211 44.3633 58.7539 44.5 57.25 44.5ZM79.125 22.625C79.125 32.4688 72.5625 40.8086 63.8125 43.543V69.6562V70.75H62.7188H54.2422H53.1484V69.6562V51.0625L40.0234 59.8125H41.5273C45.3555 59.8125 48.5 62.957 48.5 66.7852V69.6562V70.75H47.4062H21.1562H10.2188H9.125V69.6562V58.7188V23.7188C9.125 19.6172 5.57031 16.0625 1.46875 16.0625H0.375V13.875H1.46875C6.80078 13.875 11.3125 18.3867 11.3125 23.7188V46.5508C15.1406 36.0234 24.1641 27.6836 35.375 24.8125C35.375 24.1289 35.375 23.4453 35.375 22.625C35.375 10.5938 45.082 0.75 57.25 0.75C69.2812 0.75 79.125 10.5938 79.125 22.625ZM46.9961 9.77344L52.0547 13.875H62.3086L67.5039 9.77344L69.2812 8.40625V10.5938V23.7188C69.2812 30.418 63.8125 35.75 57.25 35.75C50.5508 35.75 45.2188 30.418 45.2188 23.7188V10.5938V8.40625L46.9961 9.77344ZM47.4062 23.7188C47.4062 29.1875 51.7812 33.5625 57.25 33.5625C62.582 33.5625 67.0938 29.1875 67.0938 23.7188V12.918L63.4023 15.9258L62.9922 16.0625H62.7188H51.7812H51.3711L51.0977 15.9258L47.4062 12.918V23.7188ZM50.6875 22.625C50.6875 21.5312 51.6445 20.4375 52.875 20.4375C53.9688 20.4375 55.0625 21.5312 55.0625 22.625C55.0625 23.8555 53.9688 24.8125 52.875 24.8125C51.6445 24.8125 50.6875 23.8555 50.6875 22.625ZM61.625 20.4375C62.7188 20.4375 63.8125 21.5312 63.8125 22.625C63.8125 23.8555 62.7188 24.8125 61.625 24.8125C60.3945 24.8125 59.4375 23.8555 59.4375 22.625C59.4375 21.5312 60.3945 20.4375 61.625 20.4375ZM27.7188 2.9375V8.40625H33.1875H34.2812V10.5938H33.1875H27.7188V16.0625V17.1562H25.5312V16.0625V10.5938H20.0625H18.9688V8.40625H20.0625H25.5312V2.9375V1.84375H27.7188V2.9375Z" fill="#F18574"/>
</svg>
