<svg width="62" height="62" viewBox="0 0 62 62" fill="none" xmlns="http://www.w3.org/2000/svg">
<path d="M59.0625 2.3125H2.1875V59.1875H59.0625V2.3125ZM2.1875 0.125H59.0625H61.25V2.3125V59.1875V61.375H59.0625H2.1875H0V59.1875V2.3125V0.125H2.1875ZM42.6562 8.875C38.9648 8.875 35.8203 10.9258 34.043 13.7969L33.4961 14.7539L31.582 13.6602L32.1289 12.7031C34.3164 9.14844 38.1445 6.6875 42.6562 6.6875C49.2188 6.6875 54.6875 12.1562 54.6875 18.7188C54.6875 25.418 49.2188 30.75 42.6562 30.75H41.5625V28.5625H42.6562C47.9883 28.5625 52.5 24.1875 52.5 18.7188C52.5 13.3867 47.9883 8.875 42.6562 8.875ZM23.5156 35.9453C21.7383 37.7227 20.7812 40.1836 20.7812 42.7812C20.7812 48.25 25.1562 52.625 30.625 52.625C35.957 52.625 40.4688 48.25 40.4688 42.7812C40.4688 40.1836 39.375 37.7227 37.5977 35.9453L36.7773 35.125L38.418 33.6211L39.1016 34.4414C41.2891 36.6289 42.6562 39.5 42.6562 42.7812C42.6562 49.4805 37.1875 54.8125 30.625 54.8125C23.9258 54.8125 18.5938 49.4805 18.5938 42.7812C18.5938 39.5 19.8242 36.6289 22.0117 34.4414L22.6953 33.6211L24.3359 35.125L23.5156 35.9453ZM17.5 16.1211L18.1836 16.9414L30.625 29.2461L42.9297 16.9414L43.75 16.1211L45.2539 17.625L44.4336 18.4453L31.7188 31.2969V43.875V44.9688H29.5312V43.875V31.2969L16.6797 18.4453L15.8594 17.625L17.5 16.1211ZM27.0703 13.7969C25.4297 10.9258 22.1484 8.875 18.5938 8.875C13.125 8.875 8.75 13.3867 8.75 18.7188C8.75 24.1875 13.125 28.5625 18.5938 28.5625H19.6875V30.75H18.5938C11.8945 30.75 6.5625 25.418 6.5625 18.7188C6.5625 12.1562 11.8945 6.6875 18.5938 6.6875C22.9688 6.6875 26.9336 9.14844 28.9844 12.7031L29.5312 13.6602L27.6172 14.7539L27.0703 13.7969Z" fill="#F18574"/>
</svg>
