<svg width="382" height="219" viewBox="0 0 382 219" fill="none" xmlns="http://www.w3.org/2000/svg">
<rect opacity="0.5" width="382" height="219" rx="109.5" fill="#E0DACD"/>
<mask id="mask0_45_117" style="mask-type:alpha" maskUnits="userSpaceOnUse" x="0" y="0" width="382" height="219">
<rect width="382" height="219" rx="109.5" fill="#3C4251"/>
</mask>
<g mask="url(#mask0_45_117)">
<rect x="45" y="-62" width="215" height="211" rx="105.5" fill="#FCC3B6"/>
<path d="M167.977 33.0938L182.625 40.125L196.98 33.0938L201.375 30.75L203.133 35.1445L216.316 64.7344C217.195 64.4414 218.074 64.1484 218.953 63.8555C223.348 62.0977 226.863 60.3398 229.207 59.168C230.379 58.582 231.258 57.9961 231.844 57.7031C232.137 57.4102 232.43 57.4102 232.43 57.1172H232.723L234.773 55.6523L237.41 59.7539L235.359 60.9258L234.188 58.875C235.359 60.9258 235.359 60.9258 235.359 60.9258L235.066 61.2188C234.773 61.2188 234.48 61.5117 234.188 61.5117C233.602 62.0977 232.723 62.6836 231.258 63.2695C228.914 64.4414 225.105 66.4922 220.418 68.25C211.336 71.7656 198.152 75.2812 182.625 75.2812C165.633 75.2812 152.449 71.7656 143.66 68.25C138.973 66.4922 135.457 64.7344 133.113 63.2695C131.941 62.6836 131.062 62.0977 130.477 61.5117C130.184 61.2188 129.891 61.2188 129.891 60.9258H129.598C129.598 60.9258 129.598 60.9258 131.062 58.875L129.598 60.9258L127.547 59.4609L130.477 55.6523L132.234 57.1172H132.527C132.527 57.4102 132.82 57.4102 133.113 57.7031C133.699 57.9961 134.578 58.582 135.457 59.168C137.801 60.3398 141.023 62.0977 145.418 63.8555C146.297 64.1484 147.469 64.7344 148.641 65.0273L161.824 35.1445L163.875 30.75L167.977 33.0938ZM199.031 37.1953L184.676 44.5195L182.625 45.3984L180.281 44.5195L165.926 37.1953L153.035 66.4922C160.945 68.8359 170.613 70.5938 182.625 70.5938C193.758 70.5938 203.719 68.8359 211.922 66.1992L199.031 37.1953ZM145.125 87C145.125 84.3633 145.418 81.7266 146.004 79.0898C147.176 79.3828 148.934 79.9688 150.398 80.5547C149.812 82.6055 149.812 84.9492 149.812 87C149.812 105.164 164.461 119.812 182.625 119.812C200.789 119.812 215.438 105.164 215.438 87C215.438 84.6562 215.145 82.3125 214.559 80.2617C216.023 79.6758 217.781 79.0898 218.953 78.7969C219.832 81.4336 220.125 84.3633 220.125 87C220.125 90.2227 219.539 93.4453 218.953 96.375H238.289H243.562L241.512 101.062L231.844 124.5L230.086 129.188H235.066H238.875L247.371 176.062L248.25 180.75H243.27H121.688H117L117.586 176.062L126.375 129.188H129.891H134.871L133.113 124.5L123.445 101.062L121.688 96.375H126.668H146.297C145.418 93.4453 145.125 90.2227 145.125 87ZM147.762 101.062H128.426L139.266 127.43L141.902 133.875H134.871H130.184L122.566 176.062H165.926L156.844 144.129L156.258 141.785L160.652 140.613L161.238 142.664L169.734 172.547L179.695 150.867L168.855 137.977L165.633 133.875H170.906H194.344H199.324L196.102 137.977L185.262 150.867L195.223 172.547L203.719 142.664L204.305 140.32L208.699 141.785L208.113 144.129L199.031 176.062H242.391L234.773 133.875H230.086H223.055L225.691 127.43L236.531 101.062H217.195C211.629 114.832 198.152 124.5 182.625 124.5C166.805 124.5 153.328 114.832 147.762 101.062ZM182.625 156.141L173.25 176.062H191.707L182.625 156.141ZM154.5 85.5352V81.4336C155.965 81.7266 157.43 82.3125 159.188 82.6055V85.5352C159.188 90.8086 163.289 94.9102 168.562 94.9102H169.734C173.836 94.9102 177.352 92.2734 178.523 88.4648L179.988 84.6562C180.867 84.6562 181.746 84.6562 182.625 84.6562C183.211 84.6562 184.09 84.6562 184.969 84.6562L186.434 88.4648C187.605 92.2734 191.121 94.9102 195.223 94.9102H196.688C201.668 94.9102 206.062 90.8086 206.062 85.5352V82.3125C207.527 82.0195 208.992 81.7266 210.75 81.1406V85.5352C210.75 93.4453 204.305 99.5977 196.688 99.5977H195.223C189.656 99.5977 184.676 96.375 182.625 91.3945C180.281 96.375 175.301 99.5977 169.734 99.5977H168.562C160.652 99.5977 154.5 93.4453 154.5 85.5352ZM182.625 146.766L189.07 138.562H175.887L182.625 146.766Z" fill="#3C4251"/>
</g>
</svg>
