<svg width="382" height="219" viewBox="0 0 382 219" fill="none" xmlns="http://www.w3.org/2000/svg">
<rect opacity="0.5" width="382" height="219" rx="109.5" fill="#E0DACD"/>
<mask id="mask0_45_123" style="mask-type:alpha" maskUnits="userSpaceOnUse" x="0" y="0" width="382" height="219">
<rect x="0.5" y="0.5" width="381" height="218" rx="109" fill="#88A7BE" stroke="black"/>
</mask>
<g mask="url(#mask0_45_123)">
<rect y="-64" width="215" height="211" rx="105.5" fill="#FCC3B6"/>
<path d="M110.688 98.3748C110.688 114.781 117.133 130.308 128.559 141.734L129.438 142.613V143.492V180.406V182.75H124.75V180.406V144.371C112.738 132.066 106 115.953 106 98.3748C106 62.3396 135.297 32.7498 171.625 32.7498H178.656C208.832 32.7498 233.148 57.3591 234.613 86.949L255.121 105.113L256 105.699V106.871V128.844V131.187H253.656H237.25V161.656V164H234.906H199.75V180.406V182.75H195.062V180.406V161.656V159.312H197.406H232.562V128.844V126.5H234.906H251.312V107.75L230.805 89.8787L230.219 89.2927V88.1208C229.047 60.2888 206.488 37.4373 178.656 37.4373H171.625C137.934 37.4373 110.688 64.9763 110.688 98.3748ZM162.836 66.1482L161.664 68.199L159.613 67.0271C158.148 66.4412 156.977 66.1482 155.219 66.1482C150.824 66.1482 147.016 69.3708 146.43 74.0583L146.137 76.1091H144.086C138.52 76.1091 134.125 80.7966 134.125 86.363C134.125 90.7576 136.469 94.2732 139.984 95.738L141.742 96.6169L141.449 98.0818C141.449 98.3748 141.449 98.6677 141.449 98.9607C141.449 104.82 146.137 109.215 151.703 109.215H156.684H159.027V111.558V124.156V126.5H154.34V124.156V113.902H151.703C143.5 113.902 137.055 107.457 136.762 99.5466C132.367 96.9099 129.438 91.9294 129.438 86.363C129.438 78.7458 135.004 72.5935 142.328 71.7146C143.793 65.8552 149.066 61.4607 155.219 61.4607C156.977 61.4607 158.441 61.7537 159.906 62.0466C162.543 58.531 166.645 56.1873 171.625 56.1873C176.312 56.1873 180.414 58.531 183.344 62.0466C184.516 61.7537 185.98 61.4607 187.738 61.4607C191.84 61.4607 195.648 63.2185 198.285 66.4412C198.285 66.4412 198.578 66.4412 198.871 66.4412C207.074 66.4412 213.812 73.1794 213.812 81.3826V93.9802V96.324H211.469H185.395V111.558V113.902H183.051H173.969H171.625V109.215H173.969H180.707V93.9802V91.6365H183.051H209.125V81.3826C209.125 75.5232 204.438 71.1287 198.871 71.1287C198.285 71.1287 197.992 71.1287 197.406 71.1287L195.941 71.4216L195.062 70.2498C193.598 67.613 190.668 66.1482 187.738 66.1482C186.273 66.1482 184.809 66.4412 183.344 67.0271L181.293 68.199L180.414 66.1482C178.656 63.2185 175.141 60.8748 171.625 60.8748C167.816 60.8748 164.594 63.2185 162.836 66.1482Z" fill="#3C4251"/>
</g>
</svg>
