<svg viewBox="0 0 382 219" fill="none" xmlns="http://www.w3.org/2000/svg">
<rect opacity="0.5" width="382" height="219" rx="109.5" fill="#E0DACD"/>
<mask id="mask0_45_112" style="mask-type:alpha" maskUnits="userSpaceOnUse" x="0" y="0" width="382" height="219">
<rect width="382" height="219" rx="109.5" fill="#88A7BE"/>
</mask>
<g mask="url(#mask0_45_112)">
<rect x="135" y="-30" width="215" height="211" rx="105.5" fill="#FCC3B6"/>
<path d="M270.438 36.4375H111.062V101.184C109.305 102.355 107.547 103.234 106.375 104.699V36.4375V31.75H111.062H270.438H275.125V36.4375V104.699C273.66 103.234 271.902 102.355 270.438 101.184V36.4375ZM125.125 139.562C130.105 139.562 134.5 136.926 137.137 132.531C139.773 128.43 139.773 122.863 137.137 118.469C134.5 114.367 130.105 111.438 125.125 111.438C119.852 111.438 115.457 114.367 112.82 118.469C110.184 122.863 110.184 128.43 112.82 132.531C115.457 136.926 119.852 139.562 125.125 139.562ZM125.125 106.75C131.57 106.75 137.723 110.559 141.238 116.125C144.461 121.984 144.461 129.309 141.238 134.875C137.723 140.734 131.57 144.25 125.125 144.25C118.387 144.25 112.234 140.734 108.719 134.875C105.496 129.309 105.496 121.984 108.719 116.125C112.234 110.559 118.387 106.75 125.125 106.75ZM190.75 139.562C195.73 139.562 200.125 136.926 202.762 132.531C205.398 128.43 205.398 122.863 202.762 118.469C200.125 114.367 195.73 111.438 190.75 111.438C185.477 111.438 181.082 114.367 178.445 118.469C175.809 122.863 175.809 128.43 178.445 132.531C181.082 136.926 185.477 139.562 190.75 139.562ZM190.75 106.75C197.195 106.75 203.348 110.559 206.863 116.125C210.086 121.984 210.086 129.309 206.863 134.875C203.348 140.734 197.195 144.25 190.75 144.25C184.012 144.25 177.859 140.734 174.344 134.875C171.121 129.309 171.121 121.984 174.344 116.125C177.859 110.559 184.012 106.75 190.75 106.75ZM270.438 125.5C270.438 120.52 267.508 116.125 263.406 113.488C259.012 110.852 253.445 110.852 249.344 113.488C244.949 116.125 242.312 120.52 242.312 125.5C242.312 130.773 244.949 135.168 249.344 137.805C253.445 140.441 259.012 140.441 263.406 137.805C267.508 135.168 270.438 130.773 270.438 125.5ZM237.625 125.5C237.625 119.055 241.141 112.902 247 109.387C252.566 106.164 259.891 106.164 265.75 109.387C271.316 112.902 275.125 119.055 275.125 125.5C275.125 132.238 271.316 138.391 265.75 141.906C259.891 145.129 252.566 145.129 247 141.906C241.141 138.391 237.625 132.238 237.625 125.5ZM109.598 158.312L101.688 181.75H97L106.375 153.625H143.875L153.25 181.75H148.27L140.359 158.312H109.598ZM167.312 181.75H162.625L172 153.625H209.5L218.875 181.75H213.895L205.984 158.312H175.223L167.312 181.75ZM240.848 158.312L232.938 181.75H228.25L237.625 153.625H275.125L284.5 181.75H279.52L271.609 158.312H240.848Z" fill="#3C4251"/>
</g>
</svg>
